<?xml version="1.0" standalone="no"?>
<!DOCTYPE svg PUBLIC "-//W3C//DTD SVG 1.1//EN" "http://www.w3.org/Graphics/SVG/1.1/DTD/svg11.dtd" >
<svg>
<metadata>
Created by FontForge 20110222 at Mon Sep 10 09:12:24 2012
 By www-data
Copyright (c) 2012 by Dexsar Harry Anugrah. All rights reserved.
</metadata>
<defs>
<font id="DHFSemangat2012" horiz-adv-x="873" >
  <font-face 
    font-family="DHF Semangat 2012"
    font-weight="400"
    font-stretch="normal"
    units-per-em="2048"
    panose-1="2 11 6 3 5 3 2 2 2 4"
    ascent="1638"
    descent="-410"
    x-height="827"
    cap-height="1297"
    bbox="-54.6224 -518.663 2107 1930"
    underline-thickness="0"
    underline-position="0"
    unicode-range="U+0020-2122"
  />
    <missing-glyph />
    <glyph glyph-name="C" unicode="C" horiz-adv-x="981" 
d="M778 1117q-267 120 -435 -40.5t-163.5 -390t164.5 -373t425 -48.5q129 62 154.5 -19t-207.5 -128q-311 -70 -498 137t-161.5 484.5t240 456t553.5 16.5q48 -36 12 -80q-36 -54 -84 -15z" />
    <glyph glyph-name="D" unicode="D" horiz-adv-x="968" 
d="M171 1165q4 -241 4.5 -333t2 -154.5t4 -152t10.5 -314.5q55 -9 146 9q252 40 372 181.5t102.5 299t-177 294.5t-464.5 170zM73 156q-10 259 -12 355t-3 161.5t-2 165t-5 364.5q-3 31 14 59t51 28q457 -33 646.5 -242t163 -436.5t-239.5 -394.5t-558 -119q-50 7 -55 59z
" />
    <glyph glyph-name="E" unicode="E" horiz-adv-x="903" 
d="M224 1145q-4 -26 -8 -43q-7 -66 -19 -158.5t-14 -188.5q110 7 194 16.5t202 17.5q61 0 61 -61q0 -58 -60 -58q-117 -8 -201.5 -17t-194.5 -19h-3.5h-2.5q-3 -126 16.5 -234.5t72 -164.5t147 -40.5t244.5 139.5l57 54q3 0 5.5 3t5.5 5q38 28 75 -3q44 -41 6 -85
l-73.5 -70.5t-85.5 -57.5q-273 -164 -399 -86.5t-164 266t-19.5 416.5t35.5 363q9 125 154 127t190 2t90 -1t229 -6q61 0 61 -59t-61 -59q-163 2 -210.5 4t-90.5 2t-86 -1.5t-153 -2.5z" />
    <glyph glyph-name="F" unicode="F" horiz-adv-x="814" 
d="M215 1147q5 -201 7 -295t2 -150l451 51q55 17 69 -39q12 -61 -47 -76l-471 -58q0 -58 1.5 -155t6.5 -277q0 -62 -59 -62t-59 62q-7 252 -8.5 350t-4 162t-3.5 154t-6 330q-57 0 -62 57q0 61 61 61l100 3.5t221 9.5t222.5 10l101.5 4q61 2 61 -59q2 -61 -56 -61z" />
    <glyph glyph-name="G" unicode="G" horiz-adv-x="968" 
d="M504 1168q-89 13 -171.5 -40t-133.5 -269.5t-23 -380.5t110 -241.5t202.5 -39.5t258.5 265q21 35 34 73q-100 3 -116.5 1.5t-157.5 7.5q-60 0 -60 60q0 59 60 59q83 -5 117 -5h58t58 -1.5t121 -3.5v0q12 0 20 -2q54 -22 41 -75q-80 -278 -252.5 -412t-338.5 -103.5
t-242.5 264t-18.5 518.5t156.5 360.5t207.5 81.5t216.5 -44.5t179.5 -126.5q36 -47 -13 -82q-18 -12 -39 -12q-34 0 -104 66.5t-170 81.5z" />
    <glyph glyph-name="H" unicode="H" horiz-adv-x="935" 
d="M215 1222q-6 -341 -8 -428t-2 -189q111 12 162.5 19.5t88.5 12t82 10.5t146 23q0 70 -1.5 170t-1.5 382q1 60 63 60q58 -3 57 -60q0 -264 2 -365t2 -166l30 3q56 20 72 -36q17 -59 -39 -78q-18 -4 -33 -6t-28 -3q0 -59 1 -157.5t5 -268.5q-6 -59 -64 -59q-60 0 -60 59
q-1 157 -3 251.5t-2 156.5q-95 -19 -138 -25.5t-80 -12.5t-92 -12t-170 -21l-7 -347q0 -59 -60 -59t-60 59l5 337q-45 10 -45 56q0 48 47 62v95t1 100t4 161t5 276q0 60 62 60q59 0 59 -60z" />
    <glyph glyph-name="I" unicode="I" horiz-adv-x="473" 
d="M357 99l-93 -3q-9 -2 -18 -2q-8 0 -17 2l-105 -2q-56 5 -56 65q0 57 56 57h60q-1 216 -4 305q-1 101 -1 167.5v167.5q-1 87 -1 315h-75q-56 4 -56 65q0 56 56 56l249 5q63 0 63 -61q0 -62 -63 -61l-54 -1q1 -226 1 -316q0 -99 1.5 -167t2.5 -170q0 -89 4 -304l50 3
q60 0 60 -61q0 -63 -60 -60z" />
    <glyph glyph-name="J" unicode="J" horiz-adv-x="906" 
d="M168 535q-23 -167 47 -246.5t168 -79.5t192.5 77t116.5 223q22 139 16.5 309.5t-11.5 319.5l-287 -25q-64 -5 -66 55q-10 59 56 64l52 4.5t117 11.5t119.5 12.5l54.5 5.5q17 0 31 -9q40 -11 40 -55q5 -142 11 -278t0 -279q-11 -284 -152 -422.5t-293.5 -138.5t-262 133
t-58.5 392q17 54 76 39q40 -13 38 -48t-5 -65z" />
    <glyph glyph-name="K" unicode="K" horiz-adv-x="882" 
d="M179 1221q0 -236 2 -338.5t3 -162.5q124 130 172 179.5t83.5 86t93.5 94.5t205 208q48 30 85 -15q35 -48 -14 -83q-139 -142 -194.5 -197.5t-91 -90.5t-83 -86t-169.5 -176q50 -47 136.5 -122t172 -148.5t147.5 -127l62 -53.5q43 -41 7 -86q-40 -43 -84 -4l-64.5 55
t-151.5 129.5t-175.5 151t-136.5 119.5q0 -60 0.5 -156t4.5 -254q0 -58 -61 -58q-60 0 -60 58q-5 270 -6 370.5t-1 166.5t-0.5 167t-0.5 373q0 61 61 61q62 0 58 -61z" />
    <glyph glyph-name="L" unicode="L" horiz-adv-x="855" 
d="M185 1225q0 -244 -0.5 -509.5t-0.5 -512.5l541 62q56 6 67 -51q6 -65 -53 -70l-95.5 -10.5t-209 -24t-209 -23.5l-95.5 -10q-57 -4 -64 52q-3 6 -3 16v169v372t1.5 371.5l1.5 168.5q0 62 58 62q61 0 61 -62z" />
    <glyph glyph-name="M" unicode="M" horiz-adv-x="1186" 
d="M211 1005q-4 -209 -6.5 -422t-6.5 -422q0 -58 -59 -58q-61 0 -61 58q4 265 8.5 530t7.5 533q0 45 51.5 61t74.5 -29l44.5 -88.5t108 -212t129.5 -254t108 -215.5l364 768q20 45 68.5 30t46.5 -62v-1v-1l4 -170.5t11.5 -374t11 -360.5l3.5 -157q1 -59 -61 -59
q-59 -3 -59 56l-21 823q-94 -191 -197.5 -411l-103.5 -220q-19 -34 -61.5 -45t-62.5 32l-36 69t-86.5 171t-110.5 220t-109 211z" />
    <glyph glyph-name="N" unicode="N" horiz-adv-x="994" 
d="M214 1014l-12 -875q0 -59 -60 -59q-61 0 -64 58l13 1068q0 50 26 67q51 36 85 -17l596 -928l-4 896q0 58 61 58q60 0 60 -57v-168.5v-371.5t0.5 -370l0.5 -167q0 -54 -51 -61t-73 25l-63.5 98t-153 238.5t-190 295t-171.5 270.5z" />
    <glyph glyph-name="O" unicode="O" horiz-adv-x="1097" 
d="M457 1138q-164 -32 -233 -199.5t-45 -340.5t136 -296t311 -64q136 34 211 165.5t80 281.5t-59 278.5t-205 165.5q-100 27 -196 9zM667 1250q203 -49 287.5 -205.5t79 -336.5t-84.5 -341.5t-198 -212.5q-291 -128 -463 16.5t-214 377.5t50.5 458.5t338.5 255.5
q92 9 204 -12z" />
    <glyph glyph-name="P" unicode="P" horiz-adv-x="922" 
d="M277 1169q5 -164 5.5 -253t1.5 -141t2.5 -89.5t4.5 -98.5q311 156 400.5 270t45.5 187t-181 104.5t-279 20.5zM294 456q3 -106 7 -303q0 -60 -59 -60t-59 60q-8 242 -11.5 338t-4.5 151t-2 102.5t-4 153.5q0 44 -1.5 106.5t-1.5 148.5q-19 -6 -42.5 -13t-39.5 -3
q-29 7 -45 37q-20 53 35 78q210 61 435 25t324 -148t1 -287.5t-532 -385.5z" />
    <glyph glyph-name="Q" unicode="Q" horiz-adv-x="1085" 
d="M559 1147q-204 18 -293.5 -133.5t-82.5 -336.5t99 -336t255 -134q-15 28 -35.5 79.5t-65.5 160.5q-14 57 40 76q59 15 77 -42q46 -111 65.5 -160t32.5 -80q46 27 74 46q89 63 138 200.5t39 281t-89.5 255t-243.5 123.5h-4v0v0h-1v0h-3v0h-2zM697 130q15 -31 32.5 -72.5
t46.5 -108.5q19 -58 -39 -77q-56 -18 -79 37q-24 67 -43 108.5t-29 73.5q-227 -53 -365.5 133.5t-155 427.5t103.5 440t410 176h0.5h4.5q211 -22 315 -161.5t120 -315t-45.5 -346t-181.5 -255.5q-32 -24 -95 -60z" />
    <glyph glyph-name="R" unicode="R" horiz-adv-x="912" 
d="M255 1145q2 -166 4 -254.5t3.5 -141.5t2 -89.5t3.5 -99.5q312 158 402 273t45.5 187t-182 103t-278.5 22zM383 487q109 -83 283 -208.5l174 -125.5q47 -37 11 -83q-37 -48 -83 -12l-496 359q3 -93 6 -243q0 -62 -58 -62q-60 0 -60 62q-7 196 -11 291t-4.5 150.5
t-1.5 104.5t-4 152q0 46 -2 108t-2 148q-14 -4 -36.5 -11t-32.5 -7q-40 0 -58 36q-17 46 17 66t67 27q202 49 408.5 9.5t300.5 -144t18.5 -265t-436.5 -352.5z" />
    <glyph glyph-name="S" unicode="S" horiz-adv-x="978" 
d="M770 937q-82 208 -225.5 208.5t-245.5 -83.5t-93.5 -197.5t257.5 -131.5q413 -36 449 -213t-111.5 -315.5t-377.5 -147t-347 292.5q-21 55 40 74q55 17 76 -41q59 -162 208 -190q99 -23 207.5 30t153.5 131t-14 156.5t-292 103.5q-370 34 -381 216t140 317t362.5 131.5
t315.5 -332.5q0 -64 -61 -65q-61 -4 -61 56z" />
    <glyph glyph-name="T" unicode="T" horiz-adv-x="922" 
d="M80 1246l375 8l375 8q61 4 64 -55q7 -57 -52 -58l-327 -12q10 -733 19 -983q0 -60 -61 -60q-58 0 -58 60l-22 980l-299 -1q-62 -5 -64 48q-6 62 50 65z" />
    <glyph glyph-name="U" unicode="U" horiz-adv-x="990" 
d="M907 954q0 -107 -6 -227t-24 -230q-41 -195 -146 -322t-322 -84q-241 44 -296 315t-50 522q0 66 3.5 131t7.5 131q0 24 2 32q2 15 17 25q17 19 41 19q26 0 44 -19q7 -9 15 -21q2 -9 2 -46q-4 -72 -7.5 -139.5t-3.5 -136.5q-6 -202 30 -412t182 -276q119 -51 192.5 -6
t118.5 142q79 178 79 447t-8 375q-7 43 3 64q5 3 6.5 6t6.5 8q32 34 62.5 16t38.5 -61q9 -54 10.5 -140t1.5 -113z" />
    <glyph glyph-name="V" unicode="V" horiz-adv-x="1051" 
d="M148 1241q91 -241 181 -478.5t183 -470.5q43 103 111 263t129.5 311t107.5 259l46 108q22 55 78 33q54 -28 33 -79l-70.5 -168.5t-155 -369.5t-153.5 -367l-69 -166q-21 -56 -79 -31q-30 9 -47 53q-110 267 -209 531.5t-202 537.5q-12 61 44 75q59 16 72 -41z" />
    <glyph glyph-name="W" unicode="W" horiz-adv-x="1243" 
d="M183 1232l11 -92.5t32 -227t41 -283t36 -265.5l255 671q13 40 68 40.5t71 -36.5l100.5 -232.5t186.5 -426.5l73 832q9 57 67 52q62 -8 56 -70l-13.5 -139.5t-30 -319.5t-32 -352t-20.5 -235q18 -56 -36 -78q-7 -4 -18 -4v0v0v0v0h-3v0v0h-6h-4v0v0h-1h-1q-52 7 -55 58
l-331 764l-292 -776q-22 -59 -77 -36q-28 9 -36 36q-10 10 -10 27l-24.5 166.5t-52.5 366.5t-51.5 366.5l-23.5 166.5q-7 59 54 73q59 13 67 -46z" />
    <glyph glyph-name="X" unicode="X" horiz-adv-x="965" 
d="M904 1180q-181 -265 -253 -366.5t-116 -166.5q123 -196 225.5 -339l102.5 -143q35 -53 -16 -83q-55 -25 -83 17l-92.5 128t-210.5 311q-41 -59 -102 -157.5t-174 -236.5q-29 -53 -81 -27q-55 27 -27 80q139 185 207 288.5t109 161.5q-127 191 -224 345l-97 154
q-34 49 16 83q50 28 83 -18l89 -138.5t203 -316.5q41 58 113 161.5t226 323.5q33 50 84 20q49 -32 18 -81z" />
    <glyph glyph-name="Y" unicode="Y" horiz-adv-x="966" 
d="M893 1199l-56.5 -100t-125.5 -220.5t-125 -220l-56 -99.5l-1 -2l-1 -2l12 -439q3 -56 -58 -56q-60 0 -63 52l-9 443h-1.5t-1.5 3l-57 96.5t-125.5 211.5t-123 214.5l-54.5 99.5q-31 49 20 81q50 30 81 -23l36 -62.5t87 -150.5t105.5 -180t91.5 -153q36 61 89.5 157.5
t105 186t88.5 155l37 65.5q31 51 82 23q54 -32 23 -80z" />
    <glyph glyph-name="Z" unicode="Z" horiz-adv-x="937" 
d="M144 1266l332.5 13l332.5 13q69 -6 74 -48.5t-47 -115.5l-606 -883l584 -15q64 0 64 -60q0 -58 -64 -58l-692 16h-18q-22 5 -28 11q-50 35 -16 83l646 946l-558 -22q-57 -6 -62 55q-4 60 58 65z" />
    <glyph glyph-name="space" unicode=" " horiz-adv-x="540" 
 />
    <glyph glyph-name="a" unicode="a" horiz-adv-x="747" 
d="M540 503q-89 27 -170 9q-100 -24 -156 -99.5t-47.5 -137t90.5 -76.5t298 104q3 54 3.5 103t0.5 93zM553 168q-232 -121 -354 -80.5t-147.5 143.5t39.5 226t207 167q113 34 250 0q-20 95 -87.5 126t-225.5 -28q-3 -2 -8 -4q-56 -26 -79 29q-26 54 28 80q206 80 309.5 46.5
t144.5 -140.5t41 -265.5v-328.5q5 -59 -55 -63q-61 -3 -63 57v17.5v17.5z" />
    <glyph glyph-name="b" unicode="b" horiz-adv-x="802" 
d="M189 1238q4 -69 2 -224.5t1 -219.5q330 -44 459.5 -163t102.5 -243t-188.5 -219.5t-417.5 -92.5q-36 0 -52 31q-8 15 -8 32q-8 235 -11.5 452.5t-8.5 634.5q-6 60 54 65q61 8 67 -53zM195 671q2 -117 5 -234.5t5 -239.5q178 7 294.5 70t134.5 141.5t-82.5 154
t-356.5 108.5z" />
    <glyph glyph-name="c" unicode="c" horiz-adv-x="777" 
d="M647 666q-243 109 -360 14.5t-116.5 -227t117 -221t335.5 30.5q18 9 34 9q32 0 49 -25q28 -50 -24 -83q-312 -169 -470.5 -39t-157.5 323t164.5 332t497.5 -10q49 -30 17 -81q-19 -31 -52 -31z" />
    <glyph glyph-name="d" unicode="d" horiz-adv-x="738" 
d="M548 1200q0 57 60 61q62 0 62 -60l2.5 -202.5t5.5 -377t5.5 -320l2.5 -145.5q0 -18 -10 -32q-25 -48 -191 -40.5t-203 12.5q-175 32 -218.5 127.5t8 210.5t181 225t300.5 171zM555 703q-119 -51 -233.5 -143t-148.5 -179t46 -141.5t346 -25.5z" />
    <glyph glyph-name="e" unicode="e" horiz-adv-x="825" 
d="M601 714q-213 69 -312 -14.5t-102.5 -206.5t79.5 -224t238 -67q49 12 85 35t76 55q16 11 38 16q30 0 47 -21q37 -45 -12 -85q-65 -49 -127.5 -84.5t-142.5 -40.5q-236 -15 -334 147t-61.5 333t207 269.5t473.5 -39.5q33 -18 28 -54q0 -30 -22 -49l-66.5 -50
t-144.5 -110.5t-143.5 -110l-65.5 -49.5q-46 -37 -83 10q-36 46 10 86l120.5 92t214.5 162z" />
    <glyph glyph-name="f" unicode="f" horiz-adv-x="633" 
d="M486 1052q-185 76 -240 -64.5t-55 -340.5q91 8 199.5 18.5l108.5 10.5q60 5 65 -54q1 -61 -58 -67l-110.5 -10t-200.5 -20q2 -62 6 -121.5t10 -114.5q3 -42 4 -76t2 -65q-3 -57 -63 -56q-60 0 -57 57q-1 66 -8 163.5t-9 204.5q-49 6 -49 55q-5 51 47 64q3 258 87.5 450.5
t376.5 74.5q51 -26 26 -82q-28 -46 -76 -31z" />
    <glyph glyph-name="g" unicode="g" horiz-adv-x="809" 
d="M584 708q-216 57 -312.5 -12.5t-110 -174t32.5 -199t115 -84.5q6 1 13.5 2t14.5 5q131 27 190 140.5t62 240.5q1 40 -3 80zM161 -68q152 -215 306.5 -219.5t149.5 367.5q-1 76 -1 130.5v96.5q-51 -73 -126 -125t-171 -64q-31 -6 -62 4q-112 21 -169.5 147.5t-39 265
t126.5 240.5t332 72q36 -5 128.5 -25.5t92.5 -74.5q2 -139 3.5 -209t2 -126.5t2 -126.5t2.5 -208q2 -245 -70 -357.5t-178 -121t-224 66.5t-206 204q-31 53 18 81q34 21 66 0q10 -8 17 -18z" />
    <glyph glyph-name="h" unicode="h" horiz-adv-x="778" 
d="M184 1207q2 -259 4.5 -344.5t3.5 -138.5q68 59 159.5 92.5t172.5 2t135.5 -147.5t49.5 -350l-2 -177q0 -62 -60 -62q-61 0 -61 62l3 181q4 223 -40.5 305.5t-106.5 84t-125.5 -46t-94.5 -88.5q-29 -32 -26 -81q0 -51 0.5 -134t1.5 -226q0 -59 -60 -59t-61 59
q-1 236 -2.5 325t-1.5 147.5t-2.5 148.5t-7.5 445q0 61 60 61q60 1 61 -59z" />
    <glyph glyph-name="i" unicode="i" horiz-adv-x="302" 
d="M211 801q9 -160 6 -355.5t7 -327.5q2 -55 -58 -55q-62 0 -62 55q-11 142 -8 328.5t-4 354.5q-6 54 56 54q59 0 63 -54zM148 1135q80 0 80 -78t-80 -78q-76 0 -76 78t76 78z" />
    <glyph glyph-name="j" unicode="j" horiz-adv-x="319" 
d="M224 801q4 -107 12.5 -281t-3 -357t-50.5 -342.5t-125 -239.5q-48 -36 -84 10q-34 48 10 84q65 59 92.5 212.5t34.5 330t1.5 341t-8.5 242.5q0 61 61 61q59 0 59 -61zM160 1137q79 0 79 -79q0 -78 -79 -78q-78 0 -78 78q0 79 78 79z" />
    <glyph glyph-name="k" unicode="k" horiz-adv-x="714" 
d="M175 1209q4 -137 4 -333.5v-322.5l356 302q44 38 82 -8q40 -45 -6 -85l-341 -292l383 -277q50 -33 16 -83q-36 -50 -85 -16l-49 36t-116 83.5t-135 96t-105 76.5v-126v-130q0 -58 -58 -58q-61 0 -61 58q-2 243 -1 538t-3 541q0 60 60 60q59 0 59 -60z" />
    <glyph glyph-name="l" unicode="l" horiz-adv-x="272" 
d="M196 1221q5 -366 6 -458.5t1.5 -153.5t0 -151t-0.5 -330q0 -65 -60 -65q-61 0 -61 65q0 240 1 330t0 151t-2 151t-5 457q-4 59 57 62q60 3 63 -58z" />
    <glyph glyph-name="m" unicode="m" horiz-adv-x="1138" 
d="M186 799v-34v-32q110 81 246.5 118t184.5 -74q206 83 301.5 73t128 -97t26 -242.5t-5.5 -362.5q0 -57 -60 -57q-59 0 -59 57v45v41v152t-1 75t-4 83.5t-8 177.5q-42 29 -144.5 -8.5t-145.5 -55.5q-5 -3 -9 -5v-509q0 -59 -60 -59q-59 0 -59 59v65q0 110 1 295t-9 229
q-48 18 -164.5 -46t-153.5 -104q0 -3 -0.5 -3h-0.5v-26q1 -106 2 -211t1 -212q0 -58 -59 -58q-61 0 -61 58q0 167 -2.5 334t-4.5 333q0 60 62 62q56 0 58 -61z" />
    <glyph glyph-name="n" unicode="n" horiz-adv-x="762" 
d="M190 802v-23.5v-25.5q129 120 310 96t193 -387v0l1 -313q0 -57 -59 -57q-62 0 -62 57v52v261q-1 153 -46.5 217t-107 62.5t-125.5 -55.5t-101 -138v-44q0 -89 1.5 -176.5t1.5 -174.5q1 -61 -59 -61q-61 0 -61 57v20.5v20.5q-3 153 -4.5 305.5t-3.5 306.5q-1 59 60 60
q58 0 62 -60z" />
    <glyph glyph-name="o" unicode="o" 
d="M179 535q-25 -170 75.5 -245t215.5 -62t189.5 110.5t1.5 272.5q-50 114 -193 140.5t-239 -93.5q-40 -50 -50 -123zM299 856q156 51 312.5 -23.5t190.5 -227.5q60 -256 -64 -382.5t-290 -128t-301.5 118t-97.5 356.5q17 94 82 172.5t168 114.5z" />
    <glyph glyph-name="p" unicode="p" horiz-adv-x="814" 
d="M185 716l18 -511q216 31 329 105t116 156.5t-110 154t-353 95.5zM207 86l13 -350q0 -60 -59 -63q-62 0 -62 59l-33 996q-36 16 -36 58q0 59 61 59q335 -18 502.5 -123.5t177.5 -233t-134 -244t-430 -158.5z" />
    <glyph glyph-name="q" unicode="q" horiz-adv-x="825" 
d="M624 725q-161 8 -285 -91.5t-155 -204.5t59.5 -162t362.5 36q11 6 21 6zM632 185q-343 -112 -471.5 -11t-95 259t200 298.5t416.5 106.5h2q13 0 28 -7v0h0.5h0.5l1 -1v0q11 -7 19 -16q5 -9 10 -22v0v0v0v0v-3v-0.5v-0.5v0q1 -2 1 -10q3 -275 4 -378.5t2 -172t2 -171.5
t6 -377q0 -62 -61 -62t-61 62z" />
    <glyph glyph-name="r" unicode="r" horiz-adv-x="587" 
d="M190 794q1 -14 1 -38q70 76 163.5 109t180.5 -42q41 -43 0 -85q-44 -44 -87 0q-5 5 -12 9q-43 18 -97 -20.5t-92 -90.5q-37 -50 -45.5 -80.5t-8.5 -87.5q0 -73 2 -157.5t2 -171.5q0 -58 -60 -58q-61 0 -61 58q0 168 -2 327.5t-6 325.5q0 61 60 61q62 0 62 -59z" />
    <glyph glyph-name="s" unicode="s" horiz-adv-x="787" 
d="M589 670q-16 70 -125 80t-191 -35t-70.5 -114t249.5 -100q11 -2 47 -7q241 -26 232.5 -141t-132.5 -202.5t-296 -85t-255 210.5q-18 54 36 76q46 16 71 -25q4 -8 5 -13q60 -146 221.5 -123t211.5 117q24 47 -23.5 55t-81.5 12q-108 13 -191 35q-256 69 -236 196
t154 206.5t296 56.5t198 -199q0 -62 -61 -62q-49 0 -59 62z" />
    <glyph glyph-name="t" unicode="t" horiz-adv-x="591" 
d="M355 1114v-233q33 3 133 14q74 8 85 -50q11 -62 -62 -68q-116 -13 -154 -16l4 -618q0 -61 -60 -61q-61 0 -61 60l-4 605q-20 -3 -46 -6t-62 -8q-73 -15 -91 43q-21 59 51 74q56 7 91 12t56 6l-1 245q-2 58 59 61q59 0 62 -60z" />
    <glyph glyph-name="u" unicode="u" horiz-adv-x="778" 
d="M702 802q5 -121 8 -265t-36.5 -261.5t-165 -178t-280.5 22t-172 243.5q-5 30 4 423q-9 59 52 67q63 8 72 -52v-3.5v-3.5q-13 -351 -5 -401q-8 -100 99.5 -169.5t191.5 -11.5t107.5 166t15 227.5t-12.5 193.5v0v0q0 59 60 62q57 0 62 -59z" />
    <glyph glyph-name="v" unicode="v" horiz-adv-x="807" 
d="M148 832l12 -25l251 -543l233 545l9 23q24 56 80 31q54 -23 31 -77q-157 -367 -226.5 -549t-125 -181.5t-130.5 182t-241 543.5q-25 55 29 81q53 25 78 -30z" />
    <glyph glyph-name="w" unicode="w" horiz-adv-x="1063" 
d="M175 811v-9.5v-24.5q0 -63 7.5 -199.5t32.5 -247t75 -146.5t139 99q41 67 46.5 137t5.5 144v9q0 44 2.5 87t2.5 79q-5 61 54 66q59 4 65 -54q1 0 1 -1q-1 -36 -3 -80t-2 -90v-9v-23v-23q3 -82 19 -158t62 -120q82 -85 123.5 -21.5t58.5 177.5t17 233.5t-2 150.5
q0 5 -0.5 6.5l-0.5 1.5q0 61 59 61q62 0 62 -61q1 -51 -1.5 -200.5t-35 -286.5t-110.5 -207t-229 37q-50 36 -83 98q-23 -39 -52 -66q-164 -158 -254 -99t-130.5 204t-46.5 311.5t-1 224.5q0 59 60 59q59 0 59 -59z" />
    <glyph glyph-name="x" unicode="x" horiz-adv-x="858" 
d="M134 845q138 -143 199 -204.5t99 -100.5q83 85 156.5 165.5t119.5 134.5q37 44 84 7q46 -38 8 -85q-129 -153 -185 -218t-90 -99q36 -40 97.5 -103.5t165.5 -170.5q42 -43 0 -85q-43 -42 -85 0q-106 109 -168 172.5t-99 102.5q-52 -53 -154 -164q-10 -6 -60.5 -61.5
t-56.5 -59.5q-26 -14 -49 -6q-25 10 -38 36q-11 29 7.5 53.5t38.5 47.5q38 48 98 111.5t127 135.5q-35 36 -93.5 95t-189.5 196q-50 35 -16 85q35 48 84 15z" />
    <glyph glyph-name="y" unicode="y" horiz-adv-x="780" 
d="M226 762q-52 -214 -0.5 -360.5t133.5 -190.5q86 -49 165.5 36t66.5 343q0 15 -2 44l-18 164v1v3q-3 55 53 64q58 6 68 -52q21 -204 18 -531t-58.5 -555.5t-179 -245.5t-344.5 402q-34 50 20 84q30 20 63 1q13 -9 18 -19q18 -36 99.5 -189.5t134.5 -154.5q52 25 80 193.5
t43 338.5q-126 -122 -287 -26q-116 67 -184 245t-6 435q14 56 74 44q41 -12 44 -56z" />
    <glyph glyph-name="z" unicode="z" horiz-adv-x="708" 
d="M101 817l72 1.5t157 3.5t157 3.5l72 1.5q48 3 59 -48.5t-7 -75.5l-121.5 -165t-250.5 -352l350 5q59 0 59 -49q0 -35 -31 -51q-3 -6 -161 -8t-260 1q-25 0 -54.5 1t-50.5 16q-38 21 -21 67q8 23 61.5 97t120 162t125.5 167t84 112l-357 -9q-60 -3 -62 58q-4 59 59 62z
" />
    <glyph glyph-name="zero" unicode="0" horiz-adv-x="841" 
d="M394 1174q-92 -15 -144.5 -111.5t-69.5 -226.5q-15 -129 6 -265q23 -139 79 -225q85 -135 196.5 -94t155.5 175q38 110 48 242q10 117 -7 224q-17 116 -62 186q-47 70 -118 90q-47 7 -84 5zM512 1291q113 -35 185 -152q80 -128 92 -333q11 -189 -39 -363
q-32 -109 -87 -189t-126 -106q-127 -39 -221 -3.5t-156 121.5q-100 138 -118 366q-16 219 54 403q42 108 112 182t170 86q67 9 134 -12z" />
    <glyph glyph-name="one" unicode="1" horiz-adv-x="454" 
d="M370 1252l-2 -1081q0 -61 -60 -61q-61 2 -61 61l3 932q-12 -12 -30 -34t-65 -77q-43 -44 -85 -3q-44 39 -4 84q50 60 68.5 81.5t31.5 36t32 35.5t73 79q32 23 67 0q32 -16 32 -53z" />
    <glyph glyph-name="two" unicode="2" horiz-adv-x="820" 
d="M73 1145q49 116 207.5 151.5t277 -6.5t160 -166.5t-108.5 -342.5q-48 -67 -150 -180t-181.5 -205.5t-35 -138.5t235.5 -12l193 51q47 34 85 -13q36 -47 -12 -82q-103 -59 -306.5 -78.5t-299.5 48.5q-76 55 -46 150.5t120.5 195t175 192.5t123.5 144q133 179 88 256
t-142 81q-161 -4 -267 -93q-35 -39 -54 -35t-37 17q-39 27 -26 66z" />
    <glyph glyph-name="three" unicode="3" horiz-adv-x="838" 
d="M497 780q226 -94 264 -256.5t-44.5 -279t-267.5 -134.5t-372 175q-35 48 11 85q29 23 61 6q12 -6 25 -17q170 -144 290 -128t166.5 102t-6.5 200t-267 169q-49 7 -48.5 47t29.5 65q14 11 32 22.5t25 19.5q178 139 194 213.5t-47.5 95.5t-183.5 -3.5t-179 -82.5v0v0
q-46 -38 -85 8q-36 46 9 84q111 107 275 120.5t255.5 -45.5t80.5 -179.5t-217 -286.5z" />
    <glyph glyph-name="four" unicode="4" horiz-adv-x="762" 
d="M429 1246l-27 -76l-206 -574l375 -1q2 89 5 171t11 395q0 61 60 61t60 -61q-6 -254 -9.5 -349.5t-4.5 -158t-4 -155.5t-8 -339q0 -62 -64 -62q-58 0 -58 62q2 109 4 184.5t6 129.5q-268 0 -387.5 -3t-131.5 61.5t265 755.5q19 54 78 37q55 -23 36 -78z" />
    <glyph glyph-name="five" unicode="5" horiz-adv-x="780" 
d="M211 1165l-7 -351q382 -8 474 -147.5t45 -292.5t-225.5 -241.5t-332.5 23.5q-49 37 -73.5 81.5t-49.5 95.5q-22 56 34 77q16 5 30 5q36 -5 48 -40q86 -180 240.5 -149t206.5 140.5t-14 220t-416 105.5h-12q-6 -3 -11 -3h-2h-2q-60 0 -60 61l8 471q0 61 61 61l0.5 -0.5
t1.5 -0.5l455 -25q60 1 66 -55q3 -62 -55 -66z" />
    <glyph glyph-name="six" unicode="6" horiz-adv-x="769" 
d="M501 1202q-17 -22 -86.5 -146.5t-132.5 -275.5q298 -50 390 -163t60.5 -229.5t-144.5 -202.5t-219 -79q-262 16 -296.5 190t33.5 385h-10.5h-10.5q-60 1 -59 63q0 58 62 58q15 0 40 -2q16 -2 20 -2q13 32 32 72q61 133 125.5 243.5t101.5 165.5q36 48 84 10
q46 -38 10 -87zM236 667q-66 -188 -49 -331t228 -108q61 10 127.5 67t75 128t-70.5 140.5t-311 103.5z" />
    <glyph glyph-name="seven" unicode="7" horiz-adv-x="745" 
d="M112 1289q240 2 364.5 11t162.5 -30.5t7.5 -157t-98.5 -365.5l75 -3q59 0 59 -60t-59 -60l-106 2l-139 -478q-28 -54 -81 -26q-55 26 -26 81q17 62 28 100q38 129 59.5 203t34.5 126l-143 2q-59 0 -59 60q0 61 59 61q80 -4 116 -4.5t59 -0.5q11 55 33.5 145t66.5 279
l-397 -5h-16q-59 0 -59 60t59 60z" />
    <glyph glyph-name="eight" unicode="8" horiz-adv-x="820" 
d="M308 750q-113 -61 -122.5 -198t48.5 -242t168 -138t222 147q31 105 -25 175t-148 142q-10 -31 -14.5 -70t-52.5 -41q-60 -4 -65 55q9 75 33 134q-12 10 -22.5 18t-21.5 18zM220 835q-64 68 -86 145t37 166q63 92 191 132t226 9.5t120 -138t-128 -307.5q-15 -22 -35 -47.5
t-37 -50.5q133 -108 211.5 -229t-37.5 -314q-150 -193 -317.5 -145.5t-238.5 186t-56.5 317.5t150.5 276zM468 891l18 24q131 178 81 237.5t-139.5 39t-148 -106t58.5 -198.5q50 11 98 14q15 0 32 -10z" />
    <glyph glyph-name="nine" unicode="9" horiz-adv-x="770" 
d="M461 1176q-173 0 -239 -83t-60 -181t64.5 -174t138.5 -61q83 16 152 140q30 51 35.5 118.5t-4.5 134.5q-5 37 -10 57q-10 44 -18 46.5t-59 2.5zM694 1016q26 -463 -19.5 -648t-165.5 -258t-413 192q-43 41 -2 86q27 29 66 16q15 -9 19 -11q268 -256 337 -93.5t64 402.5
v-1q-130 -153 -262 -147q-121 5 -197.5 123.5t-73 258t105.5 252.5t337 109q204 -24 204 -281z" />
    <glyph glyph-name="period" unicode="." horiz-adv-x="288" 
d="M204 214q35 -53 -12 -92q-54 -45 -98.5 -16t-21.5 103q16 68 84 51q37 -13 48 -46z" />
    <glyph glyph-name="copyright" unicode="&#xa9;" horiz-adv-x="1363" 
d="M242 1075q123 126 284.5 162t310.5 -4t265.5 -143.5t153.5 -251.5q85 -370 -82 -563.5t-406 -221t-456.5 114t-230.5 439.5q-7 118 32.5 245.5t128.5 222.5zM898 862q-246 106 -363.5 12.5t-116.5 -225.5t115.5 -221.5t338.5 32.5q16 10 35 10q30 0 48 -25
q30 -49 -22 -84q-311 -168 -470.5 -39t-159.5 321.5t164.5 331.5t498.5 -8q50 -27 14 -81q-15 -29 -51 -29zM207 688q-22 -292 166.5 -416t396.5 -92.5t338 211.5t-2 495q-89 205 -345.5 256t-432.5 -143q-71 -77 -92.5 -147.5t-28.5 -163.5z" />
    <glyph glyph-name="registered" unicode="&#xae;" horiz-adv-x="1393" 
d="M623 979l3 -199q0 -87 0.5 -120.5t5.5 -88.5q132 67 206 122.5t104 102.5q26 46 12 81q-12 32 -56 57q-106 56 -275 45zM725 503l314 -232q116 86 160 243t-50 384q-92 210 -355.5 262t-443.5 -146q-72 -80 -94 -151t-28 -167q-14 -175 54 -291t175.5 -175t237.5 -61.5
t242 46.5l-302 221l6 -164v0q0 -25 -15 -38q-20 -14 -37 -14q-18 0 -36 14v0q-16 13 -16 38v0l-9 227q-3 49 -3 79v58q0 22 -2 55t-2 86l-4 188l-6 -4q-27 -8 -19 -3q-20 -9 -38 0v0q-23 10 -28 27l-2 1v0q-7 17 2 40v0q6 19 29 26v3v0q124 36 258 25.5t229 -58.5
q69 -37 105 -91q32 -59 10 -131q-22 -67 -101 -142t-231 -155zM263 1091q125 130 290 165.5t319 -4.5t273 -146t164 -376t-120 -450.5t-403 -209.5t-438 95t-238 449q-7 119 27 250t126 227z" />
    <glyph glyph-name="trademark" unicode="&#x2122;" horiz-adv-x="980" 
d="M116 1303l304 31q16 1 34 -10v0q0 -5 3.5 -7t5.5 -4q6 6 18 11q11 4 31 1q17 -7 25 -20l140 -283l134 281q12 16 25 21q14 6 34 0v0q9 -9 17 -16q6 -16 6 -26l13 -444q0 -19 -11 -29q-13 -14 -28 -14q-16 -3 -31 11q-13 8 -13 30l-9 270l-90 -190v0q-2 -1 -5 -4l-3 -3v0
l-3 -4.5l-1 -1.5q-4 -4 -6.5 -4.5l-2.5 -0.5h4l-10 -5v0q-15 -12 -32 -1q-17 1 -25 20l-105 208q-3 -68 -4.5 -136.5t-1.5 -133.5v0q0 -19 -12 -31q-13 -13 -31 -13q-14 0 -30 13q-11 12 -11 31v0q0 78 1 153.5t2 154.5v98q-6 -9 -18 -9l-116 -11l7 -385v0q0 -16 -12 -30
q-16 -12 -27 -12q-21 0 -35 12v0q-11 14 -11 30v0l-9 375l-103 -8q-14 -6 -30 8v0q-16 11 -16 30q-4 13 8 32v0q8 10 30 15z" />
    <glyph glyph-name="dollar" unicode="$" horiz-adv-x="978" 
d="M426 1408q0 49 64 61q59 13 59 -40v-153q96 13 171 -34t89 -185q5 -62 -56 -62q-20 -4 -41 14l-23 43q-10 117 -141 98v-381q213 -1 286 -85.5t50.5 -194t-118.5 -215.5t-218 -150l-1 -122q0 -49 -61 -62q-62 -3 -62 43v120q-86 -4 -166 47t-142 168q-13 19 -14 26.5
t-8 31.5q-1 60 54 66q30 0 47 -16q19 -16 20 -42q73 -137 209 -152l2 410h-21h-21q-44 0 -81 1.5t-56 9.5q-113 49 -134 129t16 165.5t120 164t177 124.5v172zM426 1106q-138 -76 -196.5 -202t196.5 -135v337zM548 253q113 40 185 157q92 143 15 185.5t-200 46.5v-389z" />
    <glyph glyph-name="Euro" unicode="&#x20ac;" horiz-adv-x="846" 
d="M38 626h56.5h44.5q0 65 9 114q-20 0 -47.5 1.5t-62.5 1.5q-44 0 -44 62q0 57 44 57q106 0 146 -1q77 207 245 354.5t305 139.5q60 -10 52 -69q-8 -49 -60 -49h-12q-73 4 -200.5 -109t-200.5 -270h114.5t249.5 8q47 10 53 -47q9 -60 -34 -72q-242 -7 -280 -8.5t-144 -0.5
q-12 -57 -12 -113q110 -2 146 -2t271 6q47 16 53 -45q9 -61 -34 -72q-233 -8 -275.5 -9.5t-135.5 1.5q39 -94 139.5 -175.5t289.5 -135.5q2 0 6 -0.5t6 -0.5q60 -13 45 -71q-11 -62 -68 -48q-252 69 -379 183t-166 248q-34 3 -120 3q-44 0 -44 64q0 55 44 55z" />
    <glyph glyph-name="yen" unicode="&#xa5;" horiz-adv-x="966" 
d="M139 481q107 0 166 -1.5t95 -1.5l-6 113q-35 0 -93.5 2t-161.5 3q-45 0 -45 59q0 61 45 61q71 0 117.5 -1t81.5 -1q-37 64 -89 154t-100 173t-83 141.5l-35 58.5q-31 50 20 83q53 31 84 -21l37.5 -63.5t87 -150t104.5 -179.5t90 -154q36 61 91.5 158t106.5 186.5
t86.5 154l35.5 64.5q32 53 83 23q55 -30 22 -81l-34 -61.5t-83 -147t-101.5 -179t-89.5 -159.5q34 0 83 1t126 4q46 9 52 -46q9 -62 -34 -72q-219 -6 -281 -10l2 -113q35 0 93.5 1.5t167.5 4.5q46 9 52 -48q9 -60 -34 -71q-218 -6 -277 -8l6 -178q0 -55 -58 -57
q-59 0 -64 54l-4 181q-36 0 -95.5 1t-166.5 3q-45 0 -45 61q0 59 45 59z" />
    <glyph glyph-name="cent" unicode="&#xa2;" horiz-adv-x="777" 
d="M525 1011q18 37 76 22q59 -13 46 -48l-54 -147q43 -13 86 -32q47 -32 14 -82q-18 -30 -52 -32l-33 10q-25 11 -55 22l-90 -238l-88 -251q94 0 210 64q11 4 31 10q36 0 49 -27q31 -50 -21 -85q-172 -93 -314 -85l-37 -100q-11 -33 -72 -18q-60 11 -47 44l36 104
q-118 54 -166.5 184.5t-15.5 261.5t143.5 220.5t300.5 59.5l45 117v0l4 13zM432 751q-125 13 -198 -45.5t-95 -143t8.5 -172t105.5 -126.5z" />
    <glyph glyph-name="section" unicode="&#xa7;" horiz-adv-x="1036" 
d="M776 1115q-57 209 -203.5 212t-248.5 -81.5t-92.5 -197.5t269.5 -136q365 -39 429.5 -185.5t-32.5 -281.5q111 -115 37.5 -259t-224 -221t-326.5 -42t-273 279q-20 58 41 75q56 20 74 -39q76 -200 243.5 -200t275 84.5t81.5 199t-335 145.5q-313 30 -364 166.5t42 272.5
q-115 109 -38 260.5t226 233.5t313 40.5t223 -318.5q4 -65 -56 -65q-60 -4 -62 58zM805 509q61 81 2.5 168t-315.5 115q-143 10 -236 55q-52 -79 -7.5 -160.5t252.5 -100.5q185 -21 304 -77z" />
    <glyph glyph-name="currency" unicode="&#xa4;" horiz-adv-x="850" 
d="M250 764q80 50 176 49.5t170 -48.5l69 73q32 38 73 2v0q0 -2 2.5 -3.5t3.5 -1.5q26 -36 -4 -66l-64 -72q30 -39 46 -96q40 -182 -41 -291l59 -65q36 -36 -2 -74q-41 -37 -73 3l-64 67q-79 -45 -175 -44.5t-171 50.5l-69 -73q-33 -40 -74 -3q-38 34 0 74l67 70
q-20 22 -34 53q-12 25 -17 61q-37 150 47 265l-63 70q-38 35 0 72q36 34 72 -1zM521 321q160 131 90 288q-31 79 -142.5 105.5t-189 -58.5t-55.5 -186.5t122 -153.5q69 -44 175 5z" />
    <glyph glyph-name="slash" unicode="/" horiz-adv-x="555" 
d="M517 1287l-157.5 -602.5l-157.5 -602.5q-18 -56 -74 -40q-58 15 -46 70l160 601.5l160 601.5q15 61 73 41q57 -14 42 -69z" />
    <glyph glyph-name="exclam" unicode="!" horiz-adv-x="330" 
d="M228 214q35 -53 -13 -93q-53 -43 -97.5 -14.5t-23.5 100.5q18 71 85 50q37 -10 49 -43zM221 1381v-155.5v-342v-343.5v-157q0 -55 -59 -55t-59 55v157v343.5v342v155.5q0 54 59 54t59 -54z" />
    <glyph glyph-name="plus" unicode="+" horiz-adv-x="769" 
d="M117 768q76 0 122 -3t75 -3q0 34 -0.5 82t-4.5 124q-1 62 56 65q61 3 64 -55q2 -83 2.5 -132.5t0.5 -83.5q30 2 75.5 4t121.5 3q52 12 57 -47q11 -57 -38 -71q-84 -3 -132.5 -4.5t-79.5 -4.5q0 -28 2.5 -83t2.5 -152q0 -58 -59 -62q-63 0 -63 59q0 100 -2 153t-2 85
q-28 0 -75 1.5t-123 1.5q-49 0 -49 62q0 61 49 61z" />
    <glyph glyph-name="hyphen" unicode="-" horiz-adv-x="765" 
d="M118 768q132 0 182 -2t82 -2t77 2t168 3q49 12 61 -45q9 -59 -40 -73q-131 -3 -180 -4.5t-81 -3t-82 0t-187 3.5q-50 0 -50 60q0 61 50 61z" />
    <glyph glyph-name="equal" unicode="=" horiz-adv-x="781" 
d="M128 572q132 0 180.5 -0.5t81 -0.5t79 0.5t169.5 1.5q50 18 56 -45q13 -59 -36 -72q-131 -2 -181.5 -4t-83 -3t-82.5 0t-183 3q-50 0 -50 60t50 60zM124 879q131 -2 181 -3.5t82 -1.5t77 2.5t170 4.5q52 13 58 -49q14 -54 -39 -71q-131 -1 -179.5 -3t-81.5 -2t-82.5 1
t-185.5 1q-50 0 -50 59q0 62 50 62z" />
    <glyph glyph-name="asterisk" unicode="*" horiz-adv-x="591" 
d="M137 1009q42 43 58 59q-21 -1 -73 -1q-49 0 -49 36q-5 41 44 41q62 0 85 2q-13 12 -28.5 26.5t-35.5 33.5q-34 31 -9 61q24 31 60 -5q20 -19 34.5 -33.5l27.5 -27.5v37v48q-4 48 34 49q39 0 43 -44v-47.5v-42.5q10 13 25.5 27.5t35.5 33.5q31 35 61 5q22 -26 -7 -60
q-48 -48 -65 -61q17 0 40 -1t54 -1q50 0 50 -38q0 -39 -50 -39q-27 0 -48.5 0.5t-40.5 0.5q12 -11 26.5 -24.5t33.5 -32.5q29 -33 5 -62q-29 -25 -59 6q-20 20 -35.5 35t-25.5 27v-37.5v-48.5q0 -45 -40 -45q-37 0 -37 45v50.5v38.5q-35 -36 -58 -62q-31 -34 -62 -9
q-30 26 6 60z" />
    <glyph glyph-name="percent" unicode="%" horiz-adv-x="1011" 
d="M293 1261q-22 0 -40 -29q-25 -38 -27 -94q-4 -17 -4 -54q0 -17 6 -54q2 -29 12 -49q0 -7 15 -33v0q16 -24 34 -30q14 -3 44 11v2q13 11 25 43q12 48 18 98v49q0 29 -3 44q-8 29 -9 37q-6 17 -14 30q-10 14 -13 16v0q-4 3 -21 13v0h-4.5h-8.5h-10zM349 1371q27 -5 53 -30
q23 -19 43 -50q17 -29 31 -72q8 -29 12 -87q4 -30 -2 -85q-5 -44 -14 -82q-18 -53 -45 -97q-27 -37 -69 -54q-59 -16 -111 0q-50 17 -87 63q-25 38 -32 81q-22 53 -24 94q0 68 6 98q2 44 20 91q23 59 60 94q36 38 86 41q13 2 37 2v0q6 0 15.5 -2.5t20.5 -4.5zM720 457
q-23 -3 -39 -31q-20 -27 -28 -89q-5 -19 -5 -55q0 -21 9 -56q1 -21 13 -50q9 -23 14 -34h4q6 -20 30 -30q16 0 43 16h3q11 6 23 42q12 56 18 96q2 17 2 49q0 13 -5 44q-3 15 -7 42q-12 19 -15 28q-5 7 -16 16v0q-11 7 -19 9v0q-1 0 -6 1.5t-6 1.5h-9.5h-3.5zM777 565
q25 -6 55 -28q24 -20 42 -50q20 -35 30 -72q12 -44 12 -87q6 -46 -1 -87q-5 -44 -16 -81q-18 -57 -43 -94q-26 -40 -67 -54q-62 -18 -110 -6q-53 18 -88 68q-26 30 -37 79q-17 40 -19 94q-6 56 2 100q3 42 22 89q25 63 58 92q40 40 86 44h20h17v0q35 -4 37 -7zM805 1300
q-37 -83 -113.5 -276t-156 -396.5t-150 -375.5t-98.5 -220q-42 -38 -83 -6q-38 37 3 78v0q80 199 133.5 340t102.5 269t105.5 271.5t148.5 350.5q21 55 78 38q55 -13 30 -73z" />
    <glyph glyph-name="greater" unicode="&#x3e;" horiz-adv-x="881" 
d="M184 1068l83 -44t184.5 -99t184.5 -100l83 -45v0q87 -53 26 -128.5t-172 -145.5t-226 -123t-130 -64q-51 -30 -82 19q-32 55 21 84l28 14q76 43 228 124t214 132l-465 254l-33 17q-54 28 -25 84q30 49 81 21z" />
    <glyph glyph-name="asciicircum" unicode="^" horiz-adv-x="684" 
d="M94 937q183 485 265.5 452t229.5 -458q21 -55 -34 -78q-58 -23 -77 33q-3 7 -6 12t-3 12q-33 93 -58 168t-64 160q-33 -57 -71 -157t-61 -165q-1 -4 -3 -8t-2 -10q-24 -56 -77 -36q-59 19 -39 75z" />
    <glyph glyph-name="mu" unicode="&#xb5;" horiz-adv-x="800" 
d="M724 801q3 -122 6 -273.5t-35 -270t-139.5 -167.5t-305.5 33q-35 14 -53 30l-1 -194q0 -52 -61 -63q-26 -3 -41.5 19t-15.5 44q0 203 2 411.5t2 416.5q-8 58 53 66q58 7 68 -52v-6q0 -24 -3 -50.5t-3 -60.5v-5v-3v-262q14 -138 78 -167q157 -91 228 -43.5t95 156
t15.5 237t-9.5 202.5v0q-5 61 58 61q62 2 62 -59z" />
    <glyph glyph-name="ccedilla" unicode="&#xe7;" horiz-adv-x="777" 
d="M648 670q-246 107 -364 13t-116 -226.5t117 -220.5t338 30q9 5 35 11q30 0 48 -26q27 -49 -22 -85q-146 -74 -265 -84q0 -45 3 -56q284 -125 205 -200.5t-342 -116.5q-61 -2 -61 57q-4 60 58 60q3 3 16 3q35 6 88 16.5t95 25.5q-59 33 -97 44.5t-57 40.5q-31 34 -25 136
q-160 37 -218 194t-7 305t209.5 225.5t431.5 -41.5q43 -31 15 -83q-21 -29 -52 -31z" />
    <glyph glyph-name="colon" unicode=":" horiz-adv-x="365" 
d="M250 220q41 -49 -10 -92q-55 -43 -98 -13.5t-25 100.5q21 68 86 50q39 -8 47 -45zM229 879q35 -53 -14 -93q-51 -42 -96 -14t-23 100q16 71 87 50q34 -9 46 -43z" />
    <glyph glyph-name="asciitilde" unicode="~" horiz-adv-x="692" 
d="M117 677q76 60 126 55t91 -28t77.5 -39.5t81.5 19.5q41 44 86 0q37 -43 -3 -85q-77 -61 -131.5 -58.5t-96 23t-76 39.5t-70.5 -13q-44 -37 -86 1q-42 47 1 86z" />
    <glyph glyph-name="braceright" unicode="}" horiz-adv-x="665" 
d="M571 728q38 -14 39 -43.5t-37 -44.5q-51 -24 -120.5 -78.5t-11.5 -223.5q65 -183 4 -352.5t-338 -160.5q-59 9 -58 58q6 22 25.5 41.5t47.5 15.5q181 -3 204.5 87.5t0 213t-34 245.5t100.5 184q26 12 1 26q-112 63 -101.5 185t34 246t0 214.5t-204.5 83.5
q-28 -2 -47.5 18t-25.5 39q-1 57 58 59q277 8 338 -160.5t-4 -353.5q-58 -166 9 -218.5t121 -80.5z" />
    <glyph glyph-name="parenright" unicode=")" horiz-adv-x="504" 
d="M205 1558q114 -186 168 -416t55.5 -468t-50 -466t-154.5 -409q-8 -54 -69 -47q-56 8 -51 63q17 36 31 72t29 72q129 349 143 729t-152 716q-26 58 -51 93q-30 48 19 74q52 36 82 -13z" />
    <glyph glyph-name="perthousand" unicode="&#x2030;" horiz-adv-x="1491" 
d="M293 1261q-22 0 -40 -29q-25 -38 -27 -94q-4 -17 -4 -54q0 -17 6 -54q2 -29 12 -49q0 -7 15 -33v0q16 -24 34 -30q14 -3 44 11v2q13 11 25 43q12 48 18 98v49q0 29 -3 44q-8 29 -9 37q-6 17 -14 30q-10 14 -13 16v0q-4 3 -21 13v0h-4.5h-8.5h-10zM349 1371q27 -5 53 -30
q23 -19 43 -50q17 -29 31 -72q8 -29 12 -87q4 -30 -2 -85q-5 -44 -14 -82q-18 -53 -45 -97q-27 -37 -69 -54q-59 -16 -111 0q-50 17 -87 63q-25 38 -32 81q-22 53 -24 94q0 68 6 98q2 44 20 91q23 59 60 94q36 38 86 41q13 2 37 2v0q6 0 15.5 -2.5t20.5 -4.5zM720 457
q-23 -3 -39 -31q-20 -27 -28 -89q-5 -19 -5 -55q0 -21 9 -56q1 -21 13 -50q9 -23 14 -34h4q6 -20 30 -30q16 0 43 16h3q11 6 23 42q12 56 18 96q2 17 2 49q0 13 -5 44q-3 15 -7 42q-12 19 -15 28q-5 7 -16 16v0q-11 7 -19 9v0q-1 0 -6 1.5t-6 1.5h-9.5h-3.5zM777 565
q25 -6 55 -28q24 -20 42 -50q20 -35 30 -72q12 -44 12 -87q6 -46 -1 -87q-5 -44 -16 -81q-18 -57 -43 -94q-26 -40 -67 -54q-62 -18 -110 -6q-53 18 -88 68q-26 30 -37 79q-17 40 -19 94q-6 56 2 100q3 42 22 89q25 63 58 92q40 40 86 44h20h17v0q35 -4 37 -7zM805 1300
q-37 -83 -113.5 -276t-156 -396.5t-150 -375.5t-98.5 -220q-42 -38 -83 -6q-38 37 3 78v0q80 199 133.5 340t102.5 269t105.5 271.5t148.5 350.5q21 55 78 38q55 -13 30 -73zM1188 457q-23 -3 -38 -31q-21 -27 -28 -89q-3 -19 -3 -55q0 -21 5 -56q4 -21 13 -50q9 -23 16 -34
h2q9 -20 31 -30q16 0 44 16h3q10 6 23 42q11 56 17 96q2 17 2 49q0 13 -6 44q-2 15 -7 42q-10 19 -15 28q-4 7 -14 16v0q-12 7 -21 9v0l-5 1.5t-6 1.5h-9.5h-3.5zM1245 565q24 -6 56 -28q23 -20 41 -50q21 -35 30 -72q13 -44 13 -87q5 -46 -2 -87q-5 -44 -15 -81
q-19 -57 -44 -94q-27 -40 -68 -54q-61 -18 -110 -6q-50 18 -88 68q-24 30 -37 79q-17 40 -18 94q-4 56 1 100q5 42 22 89q26 63 59 92q39 40 86 44h20h16v0q36 -4 38 -7z" />
    <glyph glyph-name="semicolon" unicode=";" horiz-adv-x="365" 
d="M229 879q35 -53 -14 -93q-51 -42 -96 -14t-23 100q16 71 87 50q34 -9 46 -43zM250 138q-45 -81 -79 -114q-28 -24 -62 -10q-24 35 7 60q17 18 48 81q-86 -2 -70 72q16 58 97 38q108 -18 59 -127z" />
    <glyph glyph-name="less" unicode="&#x3c;" horiz-adv-x="881" 
d="M696 1068q51 28 82 -21q28 -56 -23 -84l-36 -17l-466 -254q63 -51 216 -132t227 -124q20 -10 29 -14q53 -29 20 -84q-31 -49 -83 -19q-15 11 -129 64t-225 123t-172.5 145.5t25.5 128.5v0l84.5 45t184 100t183 99z" />
    <glyph glyph-name="exclamdown" unicode="&#xa1;" horiz-adv-x="330" 
d="M228 825q-12 -36 -49 -45q-67 -20 -85 51q-21 72 23.5 100t97.5 -13q48 -41 13 -93zM221 -282q0 -50 -59 -50t-59 50v156.5v311v311v156.5q0 56 59 56t59 -56v-156.5v-311v-311v-156.5z" />
    <glyph glyph-name="question" unicode="?" horiz-adv-x="840" 
d="M436 215q36 -55 -12 -92q-54 -43 -98 -14.5t-24 102.5q19 61 87 49q35 -10 47 -45zM68 985q20 251 170.5 349.5t291.5 77.5t209 -143.5t-76 -319.5q-133 -178 -184.5 -250.5t-42.5 -294.5q5 -58 -54 -66q-61 -4 -66 55q-1 86 0 149q11 155 70 236.5t185 251.5
q95 128 52 198t-133.5 70t-189 -74t-111.5 -233q4 -42 -40 -60q-11 -3 -20 -3q-61 0 -61 57z" />
    <glyph glyph-name="questiondown" unicode="&#xbf;" horiz-adv-x="878" 
d="M439 817q-35 53 15 92q50 43 95.5 14.5t23.5 -102.5q-18 -62 -86 -51q-33 11 -48 47zM824 107q-22 -249 -171.5 -347t-291 -78t-199.5 123.5t-17 257.5q17 68 165 271q152 187 129 292q-3 60 54 66q62 5 66 -54q2 -85 14 -85q-4 -117 -159 -293q-144 -198 -154 -252
q-20 -99 15 -155.5t126.5 -56.5t190.5 73.5t111 233.5q-6 40 37 58q13 5 21 5q63 0 63 -59z" />
    <glyph glyph-name="divide" unicode="&#xf7;" horiz-adv-x="765" 
d="M118 768q132 0 182 -2t82 -2t77 2t168 3q49 12 61 -45q9 -59 -40 -73q-131 -3 -180 -4.5t-81 -3t-82 0t-187 3.5q-50 0 -50 60q0 61 50 61zM457 396q40 -49 -10 -93q-54 -42 -99 -12t-23 102q20 68 85 49q38 -6 47 -46zM436 1055q34 -52 -14 -94q-52 -42 -96 -12.5
t-23 99.5q16 72 85 52q37 -9 48 -45z" />
    <glyph glyph-name="underscore" unicode="_" horiz-adv-x="975" 
d="M124 229q131 0 280.5 -0.5t180.5 -0.5t77 0.5t170 3.5q49 14 60 -47q9 -57 -39 -73q-130 0 -179.5 -2.5t-82 -4t-182 0t-285.5 4.5q-50 0 -50 61q0 58 50 58z" />
    <glyph glyph-name="backslash" unicode="\" horiz-adv-x="493" 
d="M405 116q14 -56 -41 -72q-61 -18 -73 42l-114.5 601l-114.5 601q-13 57 44 72q59 16 74 -42l112.5 -601z" />
    <glyph glyph-name="braceleft" unicode="{" horiz-adv-x="665" 
d="M88 728q54 28 121.5 80.5t10.5 218.5q-67 185 -6 353.5t339 160.5q58 -2 56 -59q-4 -19 -24.5 -39t-46.5 -18q-183 7 -206.5 -83.5t0 -214.5t36 -246t-102.5 -185q-25 -14 1 -26q114 -61 101.5 -184t-36 -245.5t0 -213t206.5 -87.5q26 4 46.5 -15.5t24.5 -41.5
q2 -49 -56 -58q-278 -9 -339 160.5t6 352.5q57 169 -12.5 223.5t-121.5 78.5q-38 15 -37.5 44.5t39.5 43.5z" />
    <glyph glyph-name="parenleft" unicode="(" horiz-adv-x="504" 
d="M299 1558q29 49 83 13q48 -26 18 -74q-26 -35 -51 -93q-166 -336 -152 -716t142 -729q13 -36 28.5 -72t32.5 -72q5 -55 -51 -63q-62 -7 -67 47q-103 181 -155.5 409t-51.5 466t55 468t169 416z" />
    <glyph glyph-name="acute" unicode="&#xb4;" horiz-adv-x="369" 
d="M171 1048q-6 -6 -19.5 -12.5t-28.5 -10t-29 -4t-21 5.5q-14 4 13 70q13 32 27 65t30 67q7 16 30 22.5t49 4.5t48.5 -11t28.5 -24z" />
    <glyph glyph-name="degree" unicode="&#xb0;" horiz-adv-x="512" 
d="M226 1158q-22 -2 -37.5 -14t-26.5 -30v1q-6 -14 -10 -30t-4 -33v-10.5t1 -14.5q4 -20 13.5 -37.5t28.5 -34.5q8 -9 21 -12t27 -3h15.5t21.5 2h-1q20 4 35 16t25.5 27.5t16 34.5t5.5 38q0 34 -18.5 62.5t-53.5 36.5q-15 3 -29.5 4.5t-28.5 -3.5h-1zM303 1255
q85 -18 123 -79q16 -27 25.5 -58.5t8.5 -60.5q0 -34 -10 -63t-24 -57q-37 -60 -89 -77h1q-26 -11 -51.5 -15.5t-48.5 -4.5q-30 0 -53 6t-43 21q-36 26 -59.5 60.5t-31.5 75.5q-2 11 -3 23t-1 26q0 27 7 55t19 54q21 38 58.5 64.5t88.5 34.5q20 1 40 0t43 -5z" />
    <glyph glyph-name="multiply" unicode="&#xd7;" horiz-adv-x="858" 
d="M134 1084q138 -142 199 -203.5t99 -99.5q83 86 156.5 165.5t119.5 135.5q37 45 84 7q46 -41 8 -86q-129 -153 -185 -218t-90 -99q36 -39 97.5 -102t165.5 -173q42 -42 0 -83q-43 -43 -85 0q-106 108 -168 172t-99 102q-52 -53 -154 -163q-10 -7 -60.5 -62.5t-56.5 -60.5
q-26 -13 -49 -3q-25 8 -38 36q-11 27 7.5 52t38.5 47q38 46 98 110.5t127 135.5q-35 36 -93.5 96t-189.5 196q-50 35 -16 84q35 50 84 14z" />
    <glyph glyph-name="Acircumflex" unicode="&#xc2;" horiz-adv-x="898" 
d="M32 166l62 184l-1 -1q-55 -5 -55 55q0 58 55 66q11 0 42 3q40 123 85 263t84 258.5t64.5 196.5l25.5 78q20 56 78 40q21 -9 60 -111t77 -231t71.5 -250.5t49.5 -168.5q20 0 84 10q54 6 58 -54q0 -61 -52 -68q-20 0 -56 -5l87 -293q16 -56 -40 -76q-60 -14 -73 41l-94 312
q-84 -15 -123.5 -20.5t-73 -8.5t-81 -9t-142.5 -13q-31 -104 -53.5 -170l-22.5 -66q-20 -52 -75 -36q-51 12 -41 74zM610 528l-156 532l-189 -573q149 17 182.5 21t162.5 20zM285 1422q116 202 184.5 193t159.5 -193q28 -46 -21 -66q-43 -22 -68 23q-5 12 -30.5 65t-46.5 69
q-21 -15 -51 -69t-39 -68q-23 -41 -70 -22q-39 22 -18 68z" />
    <glyph glyph-name="Atilde" unicode="&#xc3;" horiz-adv-x="898" 
d="M32 166l62 184l-1 -1q-55 -5 -55 55q0 58 55 66q11 0 42 3q40 123 85 263t84 258.5t64.5 196.5l25.5 78q20 56 78 40q21 -9 60 -111t77 -231t71.5 -250.5t49.5 -168.5q20 0 84 10q54 6 58 -54q0 -61 -52 -68q-20 0 -56 -5l87 -293q16 -56 -40 -76q-60 -14 -73 41l-94 312
q-84 -15 -123.5 -20.5t-73 -8.5t-81 -9t-142.5 -13q-31 -104 -53.5 -170l-22.5 -66q-20 -52 -75 -36q-51 12 -41 74zM610 528l-156 532l-189 -573q149 17 182.5 21t162.5 20zM272 1498q68 55 112.5 56t75.5 -15t59 -33t66 8q39 27 70 -11q29 -40 -11 -70q-72 -43 -111.5 -36
t-66.5 26t-54.5 29t-71.5 -26q-37 -36 -69 3q-35 33 1 69z" />
    <glyph glyph-name="Adieresis" unicode="&#xc4;" horiz-adv-x="898" 
d="M32 166l62 184l-1 -1q-55 -5 -55 55q0 58 55 66q11 0 42 3q40 123 85 263t84 258.5t64.5 196.5l25.5 78q20 56 78 40q21 -9 60 -111t77 -231t71.5 -250.5t49.5 -168.5q20 0 84 10q54 6 58 -54q0 -61 -52 -68q-20 0 -56 -5l87 -293q16 -56 -40 -76q-60 -14 -73 41l-94 312
q-84 -15 -123.5 -20.5t-73 -8.5t-81 -9t-142.5 -13q-31 -104 -53.5 -170l-22.5 -66q-20 -52 -75 -36q-51 12 -41 74zM610 528l-156 532l-189 -573q149 17 182.5 21t162.5 20zM634 1514q31 -19 31 -52q-7 -99 -89.5 -79.5t-40.5 120.5q23 52 75 29q13 -7 24 -18zM339 1514
q31 -17 31 -52q-6 -99 -87 -79.5t-44 120.5q26 50 79 29q9 -5 21 -18z" />
    <glyph glyph-name="Aring" unicode="&#xc5;" horiz-adv-x="898" 
d="M32 166l62 184l-1 -1q-55 -5 -55 55q0 58 55 66q11 0 42 3q40 123 85 263t84 258.5t64.5 196.5l25.5 78q20 56 78 40q21 -9 60 -111t77 -231t71.5 -250.5t49.5 -168.5q20 0 84 10q54 6 58 -54q0 -61 -52 -68q-20 0 -56 -5l87 -293q16 -56 -40 -76q-60 -14 -73 41l-94 312
q-84 -15 -123.5 -20.5t-73 -8.5t-81 -9t-142.5 -13q-31 -104 -53.5 -170l-22.5 -66q-20 -52 -75 -36q-51 12 -41 74zM610 528l-156 532l-189 -573q149 17 182.5 21t162.5 20zM436 1383q-87 7 -124 97t13 154t128.5 62.5t121 -74.5t3 -152.5t-141.5 -86.5zM445 1471
q45 2 62.5 38t-1.5 69t-53 33.5t-57 -29t-7 -69.5t56 -42z" />
    <glyph glyph-name="Ecircumflex" unicode="&#xca;" horiz-adv-x="903" 
d="M224 1145q-4 -26 -8 -43q-7 -66 -19 -158.5t-14 -188.5q110 7 194 16.5t202 17.5q61 0 61 -61q0 -58 -60 -58q-117 -8 -201.5 -17t-194.5 -19h-3.5h-2.5q-3 -126 16.5 -234.5t72 -164.5t147 -40.5t244.5 139.5l57 54q3 0 5.5 3t5.5 5q38 28 75 -3q44 -41 6 -85
l-73.5 -70.5t-85.5 -57.5q-273 -164 -399 -86.5t-164 266t-19.5 416.5t35.5 363q9 125 154 127t190 2t90 -1t229 -6q61 0 61 -59t-61 -59q-163 2 -210.5 4t-90.5 2t-86 -1.5t-153 -2.5zM285 1422q116 202 184.5 193t159.5 -193q28 -46 -21 -66q-43 -22 -68 23
q-5 12 -30.5 65t-46.5 69q-21 -15 -51 -69t-39 -68q-23 -41 -70 -22q-39 22 -18 68z" />
    <glyph glyph-name="Edieresis" unicode="&#xcb;" horiz-adv-x="903" 
d="M224 1145q-4 -26 -8 -43q-7 -66 -19 -158.5t-14 -188.5q110 7 194 16.5t202 17.5q61 0 61 -61q0 -58 -60 -58q-117 -8 -201.5 -17t-194.5 -19h-3.5h-2.5q-3 -126 16.5 -234.5t72 -164.5t147 -40.5t244.5 139.5l57 54q3 0 5.5 3t5.5 5q38 28 75 -3q44 -41 6 -85
l-73.5 -70.5t-85.5 -57.5q-273 -164 -399 -86.5t-164 266t-19.5 416.5t35.5 363q9 125 154 127t190 2t90 -1t229 -6q61 0 61 -59t-61 -59q-163 2 -210.5 4t-90.5 2t-86 -1.5t-153 -2.5zM634 1514q31 -19 31 -52q-7 -99 -89.5 -79.5t-40.5 120.5q23 52 75 29q13 -7 24 -18z
M339 1514q31 -17 31 -52q-6 -99 -87 -79.5t-44 120.5q26 50 79 29q9 -5 21 -18z" />
    <glyph glyph-name="Icircumflex" unicode="&#xce;" horiz-adv-x="473" 
d="M357 99l-93 -3q-9 -2 -18 -2q-8 0 -17 2l-105 -2q-56 5 -56 65q0 57 56 57h60q-1 216 -4 305q-1 101 -1 167.5v167.5q-1 87 -1 315h-75q-56 4 -56 65q0 56 56 56l249 5q63 0 63 -61q0 -62 -63 -61l-54 -1q1 -226 1 -316q0 -99 1.5 -167t2.5 -170q0 -89 4 -304l50 3
q60 0 60 -61q0 -63 -60 -60zM66 1422q114 202 183 193t161 -193q26 -46 -22 -66q-43 -22 -69 23q-5 12 -30 65t-43 69q-24 -15 -54.5 -69t-38.5 -68q-23 -41 -68 -22q-43 22 -19 68z" />
    <glyph glyph-name="Idieresis" unicode="&#xcf;" horiz-adv-x="473" 
d="M357 99l-93 -3q-9 -2 -18 -2q-8 0 -17 2l-105 -2q-56 5 -56 65q0 57 56 57h60q-1 216 -4 305q-1 101 -1 167.5v167.5q-1 87 -1 315h-75q-56 4 -56 65q0 56 56 56l249 5q63 0 63 -61q0 -62 -63 -61l-54 -1q1 -226 1 -316q0 -99 1.5 -167t2.5 -170q0 -89 4 -304l50 3
q60 0 60 -61q0 -63 -60 -60zM417 1514q31 -19 31 -52q-7 -99 -89 -79.5t-43 120.5q23 52 77 29q12 -7 24 -18zM123 1514q30 -17 30 -52q-5 -99 -87 -79.5t-44 120.5q27 50 79 29q9 -5 22 -18z" />
    <glyph glyph-name="Ntilde" unicode="&#xd1;" horiz-adv-x="994" 
d="M214 1014l-12 -875q0 -59 -60 -59q-61 0 -64 58l13 1068q0 50 26 67q51 36 85 -17l596 -928l-4 896q0 58 61 58q60 0 60 -57v-168.5v-371.5t0.5 -370l0.5 -167q0 -54 -51 -61t-73 25l-63.5 98t-153 238.5t-190 295t-171.5 270.5zM319 1498q69 55 112.5 56t75 -15t58 -33
t67.5 8q39 27 71 -11q30 -40 -12 -70q-74 -43 -112.5 -36t-65.5 26t-54 29t-71 -26q-38 -36 -70 3q-36 33 1 69z" />
    <glyph glyph-name="Ocircumflex" unicode="&#xd4;" horiz-adv-x="1097" 
d="M457 1138q-164 -32 -233 -199.5t-45 -340.5t136 -296t311 -64q136 34 211 165.5t80 281.5t-59 278.5t-205 165.5q-100 27 -196 9zM667 1250q203 -49 287.5 -205.5t79 -336.5t-84.5 -341.5t-198 -212.5q-291 -128 -463 16.5t-214 377.5t50.5 458.5t338.5 255.5
q92 9 204 -12zM388 1422q115 202 183.5 193t158.5 -193q28 -46 -21 -66q-43 -22 -68 23q-6 12 -31 65t-45 69q-22 -15 -52.5 -69t-39.5 -68q-21 -41 -68 -22q-40 22 -17 68z" />
    <glyph glyph-name="Otilde" unicode="&#xd5;" horiz-adv-x="1097" 
d="M457 1138q-164 -32 -233 -199.5t-45 -340.5t136 -296t311 -64q136 34 211 165.5t80 281.5t-59 278.5t-205 165.5q-100 27 -196 9zM667 1250q203 -49 287.5 -205.5t79 -336.5t-84.5 -341.5t-198 -212.5q-291 -128 -463 16.5t-214 377.5t50.5 458.5t338.5 255.5
q92 9 204 -12zM340 1498q70 55 113.5 56t74.5 -15t59 -33t66 8q39 27 71 -11q29 -40 -12 -70q-71 -43 -111 -36t-67 26t-53.5 29t-70.5 -26q-39 -36 -72 3q-35 33 2 69z" />
    <glyph glyph-name="Odieresis" unicode="&#xd6;" horiz-adv-x="1097" 
d="M457 1138q-164 -32 -233 -199.5t-45 -340.5t136 -296t311 -64q136 34 211 165.5t80 281.5t-59 278.5t-205 165.5q-100 27 -196 9zM667 1250q203 -49 287.5 -205.5t79 -336.5t-84.5 -341.5t-198 -212.5q-291 -128 -463 16.5t-214 377.5t50.5 458.5t338.5 255.5
q92 9 204 -12zM753 1514q30 -19 30 -52q-5 -99 -86.5 -79.5t-43.5 120.5q23 52 75 29q15 -7 25 -18zM460 1514q30 -17 30 -52q-8 -99 -89.5 -79.5t-42.5 120.5q26 50 78 29q9 -5 24 -18z" />
    <glyph glyph-name="Ugrave" unicode="&#xd9;" horiz-adv-x="990" 
d="M907 954q0 -107 -6 -227t-24 -230q-41 -195 -146 -322t-322 -84q-241 44 -296 315t-50 522q0 66 3.5 131t7.5 131q0 24 2 32q2 15 17 25q17 19 41 19q26 0 44 -19q7 -9 15 -21q2 -9 2 -46q-4 -72 -7.5 -139.5t-3.5 -136.5q-6 -202 30 -412t182 -276q119 -51 192.5 -6
t118.5 142q79 178 79 447t-8 375q-7 43 3 64q5 3 6.5 6t6.5 8q32 34 62.5 16t38.5 -61q9 -54 10.5 -140t1.5 -113z" />
    <glyph glyph-name="Uacute" unicode="&#xda;" horiz-adv-x="990" 
d="M907 954q0 -107 -6 -227t-24 -230q-41 -195 -146 -322t-322 -84q-241 44 -296 315t-50 522q0 66 3.5 131t7.5 131q0 24 2 32q2 15 17 25q17 19 41 19q26 0 44 -19q7 -9 15 -21q2 -9 2 -46q-4 -72 -7.5 -139.5t-3.5 -136.5q-6 -202 30 -412t182 -276q119 -51 192.5 -6
t118.5 142q79 178 79 447t-8 375q-7 43 3 64q5 3 6.5 6t6.5 8q32 34 62.5 16t38.5 -61q9 -54 10.5 -140t1.5 -113z" />
    <glyph glyph-name="Ucircumflex" unicode="&#xdb;" horiz-adv-x="990" 
d="M907 954q0 -107 -6 -227t-24 -230q-41 -195 -146 -322t-322 -84q-241 44 -296 315t-50 522q0 66 3.5 131t7.5 131q0 24 2 32q2 15 17 25q17 19 41 19q26 0 44 -19q7 -9 15 -21q2 -9 2 -46q-4 -72 -7.5 -139.5t-3.5 -136.5q-6 -202 30 -412t182 -276q119 -51 192.5 -6
t118.5 142q79 178 79 447t-8 375q-7 43 3 64q5 3 6.5 6t6.5 8q32 34 62.5 16t38.5 -61q9 -54 10.5 -140t1.5 -113z" />
    <glyph glyph-name="Udieresis" unicode="&#xdc;" horiz-adv-x="990" 
d="M907 954q0 -107 -6 -227t-24 -230q-41 -195 -146 -322t-322 -84q-241 44 -296 315t-50 522q0 66 3.5 131t7.5 131q0 24 2 32q2 15 17 25q17 19 41 19q26 0 44 -19q7 -9 15 -21q2 -9 2 -46q-4 -72 -7.5 -139.5t-3.5 -136.5q-6 -202 30 -412t182 -276q119 -51 192.5 -6
t118.5 142q79 178 79 447t-8 375q-7 43 3 64q5 3 6.5 6t6.5 8q32 34 62.5 16t38.5 -61q9 -54 10.5 -140t1.5 -113z" />
    <glyph glyph-name="Oslash" unicode="&#xd8;" horiz-adv-x="1097" 
d="M762 1269l-12 -45q138 -56 205 -179q84 -157 78.5 -337t-84.5 -341.5t-198 -212.5q-168 -74 -297 -60l-7 -27q-16 -56 -76 -41q-56 15 -43 71l10 38q-25 13 -51 36q-171 144 -213 377t50.5 458.5t338.5 255.5q80 7 173 -6l11 44q15 59 75 41q56 -16 40 -72zM457 1138
q-164 -32 -233 -199.5t-45 -340.5t136 -296q24 -27 55 -47l235 883q-77 15 -148 0zM626 238q136 34 211 165.5t80 281.5t-59 278q-49 95 -139 143l-233 -886q63 -5 140 18z" />
    <glyph glyph-name="dieresis" unicode="&#xa8;" horiz-adv-x="614" 
d="M507 1190q31 -19 31 -52q-6 -98 -88 -78.5t-43 120.5q24 52 77 27q13 -6 23 -17zM214 1190q31 -16 31 -52q-7 -98 -89 -78.5t-44 120.5q27 50 80 27q9 -5 22 -17z" />
    <glyph glyph-name="grave" unicode="`" horiz-adv-x="369" 
d="M63 1221q7 15 30 24t49 11t49 -4.5t31 -22.5q15 -34 29 -67t27 -65q26 -65 14 -70q-6 -6 -20 -5.5t-29.5 4t-29.5 10t-20 12.5z" />
    <glyph glyph-name="ograve" unicode="&#xf2;" 
d="M179 535q-25 -170 75.5 -245t215.5 -62t189.5 110.5t1.5 272.5q-50 114 -193 140.5t-239 -93.5q-40 -50 -50 -123zM299 856q156 51 312.5 -23.5t190.5 -227.5q60 -256 -64 -382.5t-290 -128t-301.5 118t-97.5 356.5q17 94 82 172.5t168 114.5zM319 1221q7 15 29.5 24
t48.5 11t48.5 -4.5t30.5 -22.5q16 -34 30.5 -67t27.5 -65q22 -66 13 -70q-7 -6 -21 -5.5t-29.5 4t-29.5 10t-20 12.5z" />
    <glyph glyph-name="oacute" unicode="&#xf3;" 
d="M179 535q-25 -170 75.5 -245t215.5 -62t189.5 110.5t1.5 272.5q-50 114 -193 140.5t-239 -93.5q-40 -50 -50 -123zM299 856q156 51 312.5 -23.5t190.5 -227.5q60 -256 -64 -382.5t-290 -128t-301.5 118t-97.5 356.5q17 94 82 172.5t168 114.5zM426 1048q-6 -6 -20 -12.5
t-29 -10t-29 -4t-20 5.5q-12 4 11 70q14 32 28 65t29 67q8 16 31 22.5t49.5 4.5t49 -11t28.5 -24z" />
    <glyph glyph-name="odieresis" unicode="&#xf6;" 
d="M179 535q-25 -170 75.5 -245t215.5 -62t189.5 110.5t1.5 272.5q-50 114 -193 140.5t-239 -93.5q-40 -50 -50 -123zM299 856q156 51 312.5 -23.5t190.5 -227.5q60 -256 -64 -382.5t-290 -128t-301.5 118t-97.5 356.5q17 94 82 172.5t168 114.5zM636 1190q33 -19 33 -52
q-8 -98 -89 -78.5t-43 120.5q23 52 78 27q11 -6 21 -17zM344 1190q29 -16 29 -52q-5 -98 -87 -78.5t-44 120.5q28 50 79 27q9 -5 23 -17z" />
    <glyph glyph-name="tilde" unicode="&#x2dc;" horiz-adv-x="587" 
d="M106 1115q69 56 112 57.5t75 -16t59.5 -33.5t66.5 10q38 25 69 -12q29 -39 -12 -70q-71 -44 -110 -37t-66.5 25.5t-55 29t-69.5 -23.5q-37 -38 -71 2q-36 32 2 68z" />
    <glyph glyph-name="otilde" unicode="&#xf5;" 
d="M179 535q-25 -170 75.5 -245t215.5 -62t189.5 110.5t1.5 272.5q-50 114 -193 140.5t-239 -93.5q-40 -50 -50 -123zM299 856q156 51 312.5 -23.5t190.5 -227.5q60 -256 -64 -382.5t-290 -128t-301.5 118t-97.5 356.5q17 94 82 172.5t168 114.5zM247 1115q69 56 113 57.5
t76 -16t58.5 -33.5t65.5 10q41 25 72 -12q28 -39 -15 -70q-69 -44 -108.5 -37t-66.5 25.5t-54 29t-72 -23.5q-34 -38 -69 2q-36 32 0 68z" />
    <glyph glyph-name="circumflex" unicode="&#x2c6;" horiz-adv-x="530" 
d="M92 1048q113 202 182.5 192t161.5 -192q26 -46 -21 -67q-45 -23 -69 22q-8 14 -32.5 66t-42.5 68q-24 -13 -54.5 -67.5t-37.5 -67.5q-23 -42 -67 -22q-44 22 -20 68z" />
    <glyph glyph-name="ocircumflex" unicode="&#xf4;" 
d="M179 535q-25 -170 75.5 -245t215.5 -62t189.5 110.5t1.5 272.5q-50 114 -193 140.5t-239 -93.5q-40 -50 -50 -123zM299 856q156 51 312.5 -23.5t190.5 -227.5q60 -256 -64 -382.5t-290 -128t-301.5 118t-97.5 356.5q17 94 82 172.5t168 114.5zM263 1048
q115 202 183.5 192t159.5 -192q27 -46 -21 -67q-43 -23 -68 22q-6 14 -31 66t-45 68q-22 -13 -52.5 -67.5t-38.5 -67.5q-22 -42 -68 -22q-42 22 -19 68z" />
    <glyph glyph-name="ugrave" unicode="&#xf9;" horiz-adv-x="778" 
d="M702 802q5 -121 8 -265t-36.5 -261.5t-165 -178t-280.5 22t-172 243.5q-5 30 4 423q-9 59 52 67q63 8 72 -52v-3.5v-3.5q-13 -351 -5 -401q-8 -100 99.5 -169.5t191.5 -11.5t107.5 166t15 227.5t-12.5 193.5v0v0q0 59 60 62q57 0 62 -59zM271 1221q6 15 29 24t49 11
t49 -4.5t31 -22.5q14 -34 28.5 -67t28.5 -65q25 -65 13 -70q-7 -6 -21 -5.5t-29.5 4t-29 10t-19.5 12.5z" />
    <glyph glyph-name="uacute" unicode="&#xfa;" horiz-adv-x="778" 
d="M702 802q5 -121 8 -265t-36.5 -261.5t-165 -178t-280.5 22t-172 243.5q-5 30 4 423q-9 59 52 67q63 8 72 -52v-3.5v-3.5q-13 -351 -5 -401q-8 -100 99.5 -169.5t191.5 -11.5t107.5 166t15 227.5t-12.5 193.5v0v0q0 59 60 62q57 0 62 -59zM380 1048q-6 -6 -20.5 -12.5
t-30 -10t-29 -4t-18.5 5.5q-15 4 11 70q25 65 56 132q7 16 30.5 22.5t49.5 4.5t48.5 -11t28.5 -24z" />
    <glyph glyph-name="ucircumflex" unicode="&#xfb;" horiz-adv-x="778" 
d="M702 802q5 -121 8 -265t-36.5 -261.5t-165 -178t-280.5 22t-172 243.5q-5 30 4 423q-9 59 52 67q63 8 72 -52v-3.5v-3.5q-13 -351 -5 -401q-8 -100 99.5 -169.5t191.5 -11.5t107.5 166t15 227.5t-12.5 193.5v0v0q0 59 60 62q57 0 62 -59zM215 1048q115 202 184 192
t160 -192q26 -46 -22 -67q-44 -23 -68 22q-6 14 -30.5 66t-45.5 68q-23 -13 -53 -67.5t-38 -67.5q-20 -42 -68 -22q-41 22 -19 68z" />
    <glyph glyph-name="udieresis" unicode="&#xfc;" horiz-adv-x="778" 
d="M702 802q5 -121 8 -265t-36.5 -261.5t-165 -178t-280.5 22t-172 243.5q-5 30 4 423q-9 59 52 67q63 8 72 -52v-3.5v-3.5q-13 -351 -5 -401q-8 -100 99.5 -169.5t191.5 -11.5t107.5 166t15 227.5t-12.5 193.5v0v0q0 59 60 62q57 0 62 -59zM590 1190q32 -19 32 -52
q-7 -98 -89 -78.5t-43 120.5q25 52 78 27q12 -6 22 -17zM297 1190q30 -16 30 -52q-8 -98 -88.5 -78.5t-42.5 120.5q26 50 79 27q7 -5 22 -17z" />
    <glyph glyph-name="yacute" unicode="&#xfd;" horiz-adv-x="780" 
d="M226 762q-52 -214 -0.5 -360.5t133.5 -190.5q86 -49 165.5 36t66.5 343q0 15 -2 44l-18 164v1v3q-3 55 53 64q58 6 68 -52q21 -204 18 -531t-58.5 -555.5t-179 -245.5t-344.5 402q-34 50 20 84q30 20 63 1q13 -9 18 -19q18 -36 99.5 -189.5t134.5 -154.5q52 25 80 193.5
t43 338.5q-126 -122 -287 -26q-116 67 -184 245t-6 435q14 56 74 44q41 -12 44 -56zM380 1048q-6 -6 -20 -12.5t-29.5 -10t-29 -4t-19.5 5.5q-13 4 11 70q13 32 27.5 65t29.5 67q7 16 30.5 22.5t49.5 4.5t48.5 -11t28.5 -24z" />
    <glyph glyph-name="ydieresis" unicode="&#xff;" horiz-adv-x="780" 
d="M226 762q-52 -214 -0.5 -360.5t133.5 -190.5q86 -49 165.5 36t66.5 343q0 15 -2 44l-18 164v1v3q-3 55 53 64q58 6 68 -52q21 -204 18 -531t-58.5 -555.5t-179 -245.5t-344.5 402q-34 50 20 84q30 20 63 1q13 -9 18 -19q18 -36 99.5 -189.5t134.5 -154.5q52 25 80 193.5
t43 338.5q-126 -122 -287 -26q-116 67 -184 245t-6 435q14 56 74 44q41 -12 44 -56zM590 1190q32 -19 32 -52q-7 -98 -89 -78.5t-43 120.5q25 52 78 27q12 -6 22 -17zM297 1190q30 -16 30 -52q-8 -98 -88.5 -78.5t-42.5 120.5q26 50 79 27q7 -5 22 -17z" />
    <glyph glyph-name="brokenbar" unicode="&#xa6;" horiz-adv-x="272" 
d="M74 1347q0 62 61 74q62 12 62 -49v-639.5v-639.5q0 -61 -60 -73q-61 -10 -61 48l-1 639.5z" />
    <glyph glyph-name="ntilde" unicode="&#xf1;" horiz-adv-x="762" 
d="M190 802v-23.5v-25.5q129 120 310 96t193 -387v0l1 -313q0 -57 -59 -57q-62 0 -62 57v52v261q-1 153 -46.5 217t-107 62.5t-125.5 -55.5t-101 -138v-44q0 -89 1.5 -176.5t1.5 -174.5q1 -61 -59 -61q-61 0 -61 57v20.5v20.5q-3 153 -4.5 305.5t-3.5 306.5q-1 59 60 60
q58 0 62 -60zM193 1115q68 56 112 57.5t75 -16t59 -33.5t65 10q40 25 70 -12q31 -39 -10 -70q-72 -44 -110.5 -37t-66.5 25.5t-56 29t-70 -23.5q-37 -38 -69 2q-36 32 1 68z" />
    <glyph glyph-name="igrave" unicode="&#xec;" horiz-adv-x="302" 
d="M211 801q9 -160 6 -355.5t7 -327.5q2 -55 -58 -55q-62 0 -62 55q-11 142 -8 328.5t-4 354.5q-6 54 56 54q59 0 63 -54zM32 1221q7 15 30 24t49 11t49.5 -4.5t31.5 -22.5q14 -34 28 -67t27 -65q27 -66 13 -70q-5 -6 -19 -5.5t-29.5 4t-30 10t-20.5 12.5z" />
    <glyph glyph-name="iacute" unicode="&#xed;" horiz-adv-x="302" 
d="M211 801q9 -160 6 -355.5t7 -327.5q2 -55 -58 -55q-62 0 -62 55q-11 142 -8 328.5t-4 354.5q-6 54 56 54q59 0 63 -54zM142 1048q-5 -6 -19 -12.5t-30 -10t-30.5 -4t-20.5 5.5q-13 4 14 70q13 32 27 65t29 67q7 16 30 22.5t49 4.5t49 -11t30 -24z" />
    <glyph glyph-name="icircumflex" unicode="&#xee;" horiz-adv-x="302" 
d="M211 801q9 -160 6 -355.5t7 -327.5q2 -55 -58 -55q-62 0 -62 55q-11 142 -8 328.5t-4 354.5q-6 54 56 54q59 0 63 -54zM-23 1048q116 202 184 192t160 -192q28 -46 -22 -67q-43 -23 -67 22q-6 14 -31.5 66t-44.5 68q-22 -13 -52.5 -67.5t-40.5 -67.5q-21 -42 -68 -22
q-39 22 -18 68z" />
    <glyph glyph-name="idieresis" unicode="&#xef;" horiz-adv-x="302" 
d="M211 801q9 -160 6 -355.5t7 -327.5q2 -55 -58 -55q-62 0 -62 55q-11 142 -8 328.5t-4 354.5q-6 54 56 54q59 0 63 -54zM352 1190q31 -19 31 -52q-7 -98 -88 -78.5t-44 120.5q25 52 77 27q12 -6 24 -17zM59 1190q29 -16 29 -52q-6 -98 -87.5 -78.5t-42.5 120.5
q26 50 79 27q7 -5 22 -17z" />
    <glyph glyph-name="edieresis" unicode="&#xeb;" horiz-adv-x="825" 
d="M601 714q-213 69 -312 -14.5t-102.5 -206.5t79.5 -224t238 -67q49 12 85 35t76 55q16 11 38 16q30 0 47 -21q37 -45 -12 -85q-65 -49 -127.5 -84.5t-142.5 -40.5q-236 -15 -334 147t-61.5 333t207 269.5t473.5 -39.5q33 -18 28 -54q0 -30 -22 -49l-66.5 -50
t-144.5 -110.5t-143.5 -110l-65.5 -49.5q-46 -37 -83 10q-36 46 10 86l120.5 92t214.5 162zM614 1190q30 -19 30 -52q-8 -98 -90 -78.5t-42 120.5q25 52 77 27q13 -6 25 -17zM319 1190q30 -16 30 -52q-6 -98 -88 -78.5t-44 120.5q29 50 80 27q6 -5 22 -17z" />
    <glyph glyph-name="ecircumflex" unicode="&#xea;" horiz-adv-x="825" 
d="M601 714q-213 69 -312 -14.5t-102.5 -206.5t79.5 -224t238 -67q49 12 85 35t76 55q16 11 38 16q30 0 47 -21q37 -45 -12 -85q-65 -49 -127.5 -84.5t-142.5 -40.5q-236 -15 -334 147t-61.5 333t207 269.5t473.5 -39.5q33 -18 28 -54q0 -30 -22 -49l-66.5 -50
t-144.5 -110.5t-143.5 -110l-65.5 -49.5q-46 -37 -83 10q-36 46 10 86l120.5 92t214.5 162zM238 1048q114 202 183 192t159 -192q28 -46 -20 -67q-43 -23 -68 22q-6 14 -31 66t-44 68q-23 -13 -53 -67.5t-37 -67.5q-24 -42 -70 -22q-42 22 -19 68z" />
    <glyph glyph-name="eacute" unicode="&#xe9;" horiz-adv-x="825" 
d="M601 714q-213 69 -312 -14.5t-102.5 -206.5t79.5 -224t238 -67q49 12 85 35t76 55q16 11 38 16q30 0 47 -21q37 -45 -12 -85q-65 -49 -127.5 -84.5t-142.5 -40.5q-236 -15 -334 147t-61.5 333t207 269.5t473.5 -39.5q33 -18 28 -54q0 -30 -22 -49l-66.5 -50
t-144.5 -110.5t-143.5 -110l-65.5 -49.5q-46 -37 -83 10q-36 46 10 86l120.5 92t214.5 162zM402 1048q-6 -6 -20 -12.5t-29.5 -10t-29.5 -4t-20 5.5q-12 4 12 70q14 32 28 65t28 67q8 16 31.5 22.5t49.5 4.5t48.5 -11t28.5 -24z" />
    <glyph glyph-name="egrave" unicode="&#xe8;" horiz-adv-x="825" 
d="M601 714q-213 69 -312 -14.5t-102.5 -206.5t79.5 -224t238 -67q49 12 85 35t76 55q16 11 38 16q30 0 47 -21q37 -45 -12 -85q-65 -49 -127.5 -84.5t-142.5 -40.5q-236 -15 -334 147t-61.5 333t207 269.5t473.5 -39.5q33 -18 28 -54q0 -30 -22 -49l-66.5 -50
t-144.5 -110.5t-143.5 -110l-65.5 -49.5q-46 -37 -83 10q-36 46 10 86l120.5 92t214.5 162zM294 1221q7 15 30 24t49 11t48.5 -4.5t30.5 -22.5q15 -34 29 -67t27 -65q25 -65 13 -70q-6 -6 -20.5 -5.5t-30 4t-29.5 10t-19 12.5z" />
    <glyph glyph-name="agrave" unicode="&#xe0;" horiz-adv-x="747" 
d="M540 503q-89 27 -170 9q-100 -24 -156 -99.5t-47.5 -137t90.5 -76.5t298 104q3 54 3.5 103t0.5 93zM553 168q-232 -121 -354 -80.5t-147.5 143.5t39.5 226t207 167q113 34 250 0q-20 95 -87.5 126t-225.5 -28q-3 -2 -8 -4q-56 -26 -79 29q-26 54 28 80q206 80 309.5 46.5
t144.5 -140.5t41 -265.5v-328.5q5 -59 -55 -63q-61 -3 -63 57v17.5v17.5zM255 1221q6 15 29 24t49 11t49.5 -4.5t31.5 -22.5q14 -34 28 -67t27 -65q25 -66 12 -70q-5 -6 -18.5 -5.5t-29 4t-30 10t-20.5 12.5z" />
    <glyph glyph-name="aacute" unicode="&#xe1;" horiz-adv-x="747" 
d="M540 503q-89 27 -170 9q-100 -24 -156 -99.5t-47.5 -137t90.5 -76.5t298 104q3 54 3.5 103t0.5 93zM553 168q-232 -121 -354 -80.5t-147.5 143.5t39.5 226t207 167q113 34 250 0q-20 95 -87.5 126t-225.5 -28q-3 -2 -8 -4q-56 -26 -79 29q-26 54 28 80q206 80 309.5 46.5
t144.5 -140.5t41 -265.5v-328.5q5 -59 -55 -63q-61 -3 -63 57v17.5v17.5zM363 1048q-6 -6 -19.5 -12.5t-29 -10t-29.5 -4t-21 5.5q-12 4 13 70q12 32 26.5 65t29.5 67q7 16 30 22.5t49 4.5t48.5 -11t29.5 -24z" />
    <glyph glyph-name="acircumflex" unicode="&#xe2;" horiz-adv-x="747" 
d="M540 503q-89 27 -170 9q-100 -24 -156 -99.5t-47.5 -137t90.5 -76.5t298 104q3 54 3.5 103t0.5 93zM553 168q-232 -121 -354 -80.5t-147.5 143.5t39.5 226t207 167q113 34 250 0q-20 95 -87.5 126t-225.5 -28q-3 -2 -8 -4q-56 -26 -79 29q-26 54 28 80q206 80 309.5 46.5
t144.5 -140.5t41 -265.5v-328.5q5 -59 -55 -63q-61 -3 -63 57v17.5v17.5zM198 1048q116 202 184.5 192t160.5 -192q28 -46 -22 -67q-43 -23 -67 22q-7 14 -32.5 66t-43.5 68q-23 -13 -53.5 -67.5t-39.5 -67.5q-21 -42 -68 -22q-41 22 -19 68z" />
    <glyph glyph-name="atilde" unicode="&#xe3;" horiz-adv-x="747" 
d="M540 503q-89 27 -170 9q-100 -24 -156 -99.5t-47.5 -137t90.5 -76.5t298 104q3 54 3.5 103t0.5 93zM553 168q-232 -121 -354 -80.5t-147.5 143.5t39.5 226t207 167q113 34 250 0q-20 95 -87.5 126t-225.5 -28q-3 -2 -8 -4q-56 -26 -79 29q-26 54 28 80q206 80 309.5 46.5
t144.5 -140.5t41 -265.5v-328.5q5 -59 -55 -63q-61 -3 -63 57v17.5v17.5zM185 1115q70 56 112.5 57.5t74.5 -16t60 -33.5t67 10q38 25 70 -12q28 -39 -14 -70q-69 -44 -109.5 -37t-67 25.5t-53.5 29t-70 -23.5q-39 -38 -71 2q-36 32 1 68z" />
    <glyph glyph-name="adieresis" unicode="&#xe4;" horiz-adv-x="747" 
d="M540 503q-89 27 -170 9q-100 -24 -156 -99.5t-47.5 -137t90.5 -76.5t298 104q3 54 3.5 103t0.5 93zM553 168q-232 -121 -354 -80.5t-147.5 143.5t39.5 226t207 167q113 34 250 0q-20 95 -87.5 126t-225.5 -28q-3 -2 -8 -4q-56 -26 -79 29q-26 54 28 80q206 80 309.5 46.5
t144.5 -140.5t41 -265.5v-328.5q5 -59 -55 -63q-61 -3 -63 57v17.5v17.5zM573 1190q32 -19 32 -52q-6 -98 -87.5 -78.5t-44.5 120.5q26 52 80 27q11 -6 20 -17zM282 1190q28 -16 28 -52q-7 -98 -87.5 -78.5t-43.5 120.5q26 50 81 27q6 -5 22 -17z" />
    <glyph glyph-name="aring" unicode="&#xe5;" horiz-adv-x="747" 
d="M364 968q-87 7 -124 97t13 153.5t129 63t122.5 -74t3.5 -153.5t-144 -86zM373 1057q46 0 64 37.5t-2 68.5t-54 32t-56.5 -28t-6.5 -69t55 -41zM540 503q-89 27 -170 9q-100 -24 -156 -99.5t-47.5 -137t90.5 -76.5t298 104q3 54 3.5 103t0.5 93zM553 168
q-232 -121 -354 -80.5t-147.5 143.5t39.5 226t207 167q113 34 250 0q-20 95 -87.5 126t-225.5 -28q-3 -2 -8 -4q-56 -26 -79 29q-26 54 28 80q206 80 309.5 46.5t144.5 -140.5t41 -265.5v-328.5q5 -59 -55 -63q-61 -3 -63 57v17.5v17.5z" />
    <glyph glyph-name="Agrave" unicode="&#xc0;" horiz-adv-x="898" 
d="M32 166l62 184l-1 -1q-55 -5 -55 55q0 58 55 66q11 0 42 3q40 123 85 263t84 258.5t64.5 196.5l25.5 78q20 56 78 40q21 -9 60 -111t77 -231t71.5 -250.5t49.5 -168.5q20 0 84 10q54 6 58 -54q0 -61 -52 -68q-20 0 -56 -5l87 -293q16 -56 -40 -76q-60 -14 -73 41l-94 312
q-84 -15 -123.5 -20.5t-73 -8.5t-81 -9t-142.5 -13q-31 -104 -53.5 -170l-22.5 -66q-20 -52 -75 -36q-51 12 -41 74zM610 528l-156 532l-189 -573q149 17 182.5 21t162.5 20zM330 1615q7 14 30 23.5t49 11.5t48.5 -4t30.5 -23q15 -33 29 -66.5t27 -67.5q25 -62 14 -68
q-6 -6 -20 -6t-30 4t-29.5 10.5t-18.5 12.5z" />
    <glyph glyph-name="Aacute" unicode="&#xc1;" horiz-adv-x="898" 
d="M32 166l62 184l-1 -1q-55 -5 -55 55q0 58 55 66q11 0 42 3q40 123 85 263t84 258.5t64.5 196.5l25.5 78q20 56 78 40q21 -9 60 -111t77 -231t71.5 -250.5t49.5 -168.5q20 0 84 10q54 6 58 -54q0 -61 -52 -68q-20 0 -56 -5l87 -293q16 -56 -40 -76q-60 -14 -73 41l-94 312
q-84 -15 -123.5 -20.5t-73 -8.5t-81 -9t-142.5 -13q-31 -104 -53.5 -170l-22.5 -66q-20 -52 -75 -36q-51 12 -41 74zM610 528l-156 532l-189 -573q149 17 182.5 21t162.5 20zM436 1442q-5 -6 -18.5 -12.5t-29 -10.5t-30 -4t-20.5 6q-12 6 14 68q26 70 57 134q7 17 30 23
t49 4t48.5 -11.5t28.5 -23.5z" />
    <glyph glyph-name="bracketright" unicode="]" horiz-adv-x="523" 
d="M112 1527q253 6 276 1q8 -1 17 -5q14 -3 22 -13q21 -19 21 -53l-1 -765q-2 -765 1 -816q0 -51 -47 -50q-5 -1 -8 -1l-277 -1q-90 0 -78 63q12 60 74 60l112 -2q61 -1 103 -1v717v743l-74 -2h-137q-90 0 -78 64q12 61 74 61z" />
    <glyph glyph-name="Egrave" unicode="&#xc8;" horiz-adv-x="903" 
d="M224 1145q-4 -26 -8 -43q-7 -66 -19 -158.5t-14 -188.5q110 7 194 16.5t202 17.5q61 0 61 -61q0 -58 -60 -58q-117 -8 -201.5 -17t-194.5 -19h-3.5h-2.5q-3 -126 16.5 -234.5t72 -164.5t147 -40.5t244.5 139.5l57 54q3 0 5.5 3t5.5 5q38 28 75 -3q44 -41 6 -85
l-73.5 -70.5t-85.5 -57.5q-273 -164 -399 -86.5t-164 266t-19.5 416.5t35.5 363q9 125 154 127t190 2t90 -1t229 -6q61 0 61 -59t-61 -59q-163 2 -210.5 4t-90.5 2t-86 -1.5t-153 -2.5zM330 1615q7 14 30 23.5t49 11.5t48.5 -4t30.5 -23q15 -33 29 -66.5t27 -67.5
q25 -62 14 -68q-6 -6 -20 -6t-30 4t-29.5 10.5t-18.5 12.5z" />
    <glyph glyph-name="Eacute" unicode="&#xc9;" horiz-adv-x="903" 
d="M224 1145q-4 -26 -8 -43q-7 -66 -19 -158.5t-14 -188.5q110 7 194 16.5t202 17.5q61 0 61 -61q0 -58 -60 -58q-117 -8 -201.5 -17t-194.5 -19h-3.5h-2.5q-3 -126 16.5 -234.5t72 -164.5t147 -40.5t244.5 139.5l57 54q3 0 5.5 3t5.5 5q38 28 75 -3q44 -41 6 -85
l-73.5 -70.5t-85.5 -57.5q-273 -164 -399 -86.5t-164 266t-19.5 416.5t35.5 363q9 125 154 127t190 2t90 -1t229 -6q61 0 61 -59t-61 -59q-163 2 -210.5 4t-90.5 2t-86 -1.5t-153 -2.5zM436 1442q-5 -6 -18.5 -12.5t-29 -10.5t-30 -4t-20.5 6q-12 6 14 68q26 70 57 134
q7 17 30 23t49 4t48.5 -11.5t28.5 -23.5z" />
    <glyph glyph-name="Igrave" unicode="&#xcc;" horiz-adv-x="473" 
d="M357 99l-93 -3q-9 -2 -18 -2q-8 0 -17 2l-105 -2q-56 5 -56 65q0 57 56 57h60q-1 216 -4 305q-1 101 -1 167.5v167.5q-1 87 -1 315h-75q-56 4 -56 65q0 56 56 56l249 5q63 0 63 -61q0 -62 -63 -61l-54 -1q1 -226 1 -316q0 -99 1.5 -167t2.5 -170q0 -89 4 -304l50 3
q60 0 60 -61q0 -63 -60 -60zM81 1615q6 14 28.5 23.5t48.5 11.5t49 -4t31 -23q17 -33 30 -66.5t26 -67.5q14 -32 16.5 -48.5t-2.5 -19.5q-6 -6 -20 -6t-30 4t-29.5 10.5t-19.5 12.5z" />
    <glyph glyph-name="Iacute" unicode="&#xcd;" horiz-adv-x="473" 
d="M357 99l-93 -3q-9 -2 -18 -2q-8 0 -17 2l-105 -2q-56 5 -56 65q0 57 56 57h60q-1 216 -4 305q-1 101 -1 167.5v167.5q-1 87 -1 315h-75q-56 4 -56 65q0 56 56 56l249 5q63 0 63 -61q0 -62 -63 -61l-54 -1q1 -226 1 -316q0 -99 1.5 -167t2.5 -170q0 -89 4 -304l50 3
q60 0 60 -61q0 -63 -60 -60zM247 1442q-6 -6 -20 -12.5t-29.5 -10.5t-29.5 -4t-20 6q-11 5 12 68q14 34 28 67.5t28 66.5q8 17 31.5 23t49.5 4t48.5 -11.5t28.5 -23.5z" />
    <glyph glyph-name="Ograve" unicode="&#xd2;" horiz-adv-x="1097" 
d="M457 1138q-164 -32 -233 -199.5t-45 -340.5t136 -296t311 -64q136 34 211 165.5t80 281.5t-59 278.5t-205 165.5q-100 27 -196 9zM667 1250q203 -49 287.5 -205.5t79 -336.5t-84.5 -341.5t-198 -212.5q-291 -128 -463 16.5t-214 377.5t50.5 458.5t338.5 255.5
q92 9 204 -12zM399 1615q6 14 28.5 23.5t48 11.5t48.5 -4t31 -23q14 -33 29 -66.5t27 -67.5q24 -63 13 -68q-6 -6 -20 -6t-29.5 4t-29.5 10.5t-20 12.5z" />
    <glyph glyph-name="Oacute" unicode="&#xd3;" horiz-adv-x="1097" 
d="M457 1138q-164 -32 -233 -199.5t-45 -340.5t136 -296t311 -64q136 34 211 165.5t80 281.5t-59 278.5t-205 165.5q-100 27 -196 9zM667 1250q203 -49 287.5 -205.5t79 -336.5t-84.5 -341.5t-198 -212.5q-291 -128 -463 16.5t-214 377.5t50.5 458.5t338.5 255.5
q92 9 204 -12zM580 1442q-6 -6 -19.5 -12.5t-29 -10.5t-29.5 -4t-21 6q-7 3 -3 19.5t15 48.5q14 34 28.5 67.5t31.5 66.5q7 17 29.5 23t48.5 4t48.5 -11.5t28.5 -23.5z" />
    <glyph glyph-name="Yacute" unicode="&#xdd;" horiz-adv-x="966" 
d="M501 1442q-6 -6 -19.5 -12.5t-29 -10.5t-30 -4t-20.5 6q-11 5 13 68q26 70 57 134q7 17 30 23t48.5 4t48 -11.5t28.5 -23.5zM893 1199l-56.5 -100t-125.5 -220.5t-125 -220l-56 -99.5l-1 -2l-1 -2l12 -439q3 -56 -58 -56q-60 0 -63 52l-9 443h-1.5t-1.5 3l-57 96.5
t-125.5 211.5t-123 214.5l-54.5 99.5q-31 49 20 81q50 30 81 -23l36 -62.5t87 -150.5t105.5 -180t91.5 -153q36 61 89.5 157.5t105 186t88.5 155l37 65.5q31 51 82 23q54 -32 23 -80z" />
    <glyph glyph-name="Ydieresis" unicode="&#x178;" horiz-adv-x="966" 
d="M893 1199l-56.5 -100t-125.5 -220.5t-125 -220l-56 -99.5l-1 -2l-1 -2l12 -439q3 -56 -58 -56q-60 0 -63 52l-9 443h-1.5t-1.5 3l-57 96.5t-125.5 211.5t-123 214.5l-54.5 99.5q-31 49 20 81q50 30 81 -23l36 -62.5t87 -150.5t105.5 -180t91.5 -153q36 61 89.5 157.5
t105 186t88.5 155l37 65.5q31 51 82 23q54 -32 23 -80zM658 1514q30 -19 30 -52q-7 -99 -89 -79.5t-41 120.5q22 52 76 29q13 -7 24 -18zM364 1514q29 -17 29 -52q-5 -99 -87 -79.5t-43 120.5q26 50 77 29q10 -5 24 -18z" />
    <glyph glyph-name="quotesingle.001" unicode="&#x2019;" horiz-adv-x="328" 
d="M242 1174q0 -41 -22.5 -79t-49.5 -73q-26 -22 -48 4q-23 22 1 49q11 9 25 28q-80 14 -49 114q18 71 85 49q76 -16 58 -92z" />
    <glyph glyph-name="quotedblright" unicode="&#x201d;" horiz-adv-x="454" 
d="M220 1174q0 -41 -20.5 -79t-45.5 -73q-24 -22 -42 4q-18 22 0 49q5 4 23 28q-67 14 -43 114q17 71 76 49q62 -16 52 -92zM374 1174q0 -41 -20.5 -79t-44.5 -73q-22 -20 -41 4q-21 26 3 49q4 4 7.5 12.5t10.5 15.5q-67 14 -42 114q14 71 75 49q62 -16 52 -92z" />
    <glyph glyph-name="quotesingle" unicode="'" horiz-adv-x="232" 
d="M59 1221q3 19 19.5 29.5t36 11t37 -8.5t23.5 -28v-180q-2 -23 -19.5 -34.5t-38.5 -12.5t-39 9.5t-19 32.5v181v0z" />
    <glyph glyph-name="quotedblbase" unicode="&#x22;" horiz-adv-x="388" 
d="M53 1221q3 19 20 29.5t36.5 11t37 -8.5t23.5 -28v-180q-2 -23 -19 -34.5t-38 -12.5t-39 9.5t-21 32.5v181zM217 1221q4 19 20.5 29.5t36 11t37 -8.5t23.5 -28v-180q-1 -23 -18.5 -34.5t-38.5 -12.5t-39 9.5t-21 32.5v181z" />
    <glyph glyph-name="quotedblleft" unicode="&#x201c;" horiz-adv-x="454" 
d="M234 1113q0 42 21 79.5t44 71.5q25 24 45 -3q17 -24 -4 -49q-3 -5 -21 -30q65 -12 44 -112q-17 -70 -78 -49q-61 15 -51 92zM80 1113q0 42 21 79.5t43 71.5q22 22 41 -3q20 -25 -1 -49q-5 -6 -9 -14t-10 -16q67 -12 40 -112q-12 -70 -74 -49q-63 15 -51 92z" />
    <glyph glyph-name="quoteleft" unicode="&#x2018;" horiz-adv-x="328" 
d="M85 1113q0 42 22.5 79.5t51.5 71.5q24 24 46 -3q23 -24 -1 -49q-11 -11 -24 -30q80 -12 48 -112q-17 -70 -84 -49q-76 15 -59 92z" />
    <glyph glyph-name="scaron" unicode="&#x161;" horiz-adv-x="787" 
d="M238 1159q-23 47 19 70q46 18 70 -23q7 -13 37 -67.5t53 -68.5q19 17 44 68.5t31 63.5q25 48 68 24q48 -20 20 -67q-90 -181 -159 -191t-183 191zM589 670q-16 70 -125 80t-191 -35t-70.5 -114t249.5 -100q11 -2 47 -7q241 -26 232.5 -141t-132.5 -202.5t-296 -85
t-255 210.5q-18 54 36 76q46 16 71 -25q4 -8 5 -13q60 -146 221.5 -123t211.5 117q24 47 -23.5 55t-81.5 12q-108 13 -191 35q-256 69 -236 196t154 206.5t296 56.5t198 -199q0 -62 -61 -62q-49 0 -59 62z" />
    <glyph glyph-name="zcaron" unicode="&#x17e;" horiz-adv-x="708" 
d="M175 1159q-22 47 18 70q46 18 68 -23q10 -13 39.5 -67.5t51.5 -68.5q19 17 44.5 68.5t32.5 63.5q25 48 68 24q47 -20 20 -67q-91 -181 -159.5 -191t-182.5 191zM101 817l72 1.5t157 3.5t157 3.5l72 1.5q48 3 59 -48.5t-7 -75.5l-121.5 -165t-250.5 -352l350 5
q59 0 59 -49q0 -35 -31 -51q-3 -6 -161 -8t-260 1q-25 0 -54.5 1t-50.5 16q-38 21 -21 67q8 23 61.5 97t120 162t125.5 167t84 112l-357 -9q-60 -3 -62 58q-4 59 59 62z" />
    <glyph glyph-name="Scaron" unicode="&#x160;" horiz-adv-x="978" 
d="M330 1534q-22 46 19 67q45 22 68 -21q9 -12 39 -66.5t52 -68.5q19 17 45 68.5t31 65.5q24 45 68 21q49 -20 21 -66q-93 -181 -160.5 -190.5t-182.5 190.5zM770 937q-82 208 -225.5 208.5t-245.5 -83.5t-93.5 -197.5t257.5 -131.5q413 -36 449 -213t-111.5 -315.5
t-377.5 -147t-347 292.5q-21 55 40 74q55 17 76 -41q59 -162 208 -190q99 -23 207.5 30t153.5 131t-14 156.5t-292 103.5q-370 34 -381 216t140 317t362.5 131.5t315.5 -332.5q0 -64 -61 -65q-61 -4 -61 56z" />
    <glyph glyph-name="Zcaron" unicode="&#x17d;" horiz-adv-x="937" 
d="M330 1534q-22 46 19 67q45 22 68 -21q9 -12 39 -66.5t52 -68.5q19 17 45 68.5t31 65.5q24 45 68 21q49 -20 21 -66q-93 -181 -160.5 -190.5t-182.5 190.5zM144 1266l332.5 13l332.5 13q69 -6 74 -48.5t-47 -115.5l-606 -883l584 -15q64 0 64 -60q0 -58 -64 -58l-692 16
h-18q-22 5 -28 11q-50 35 -16 83l646 946l-558 -22q-57 -6 -62 55q-4 60 58 65z" />
    <glyph glyph-name="Eth" unicode="&#xd0;" horiz-adv-x="1180" 
d="M112 719q102 0 153 -1v120q-1 99 -4 364q-4 31 14 59t50 28q456 -33 646 -242t164.5 -436.5t-238.5 -394.5t-559 -119q-50 7 -56 59q-7 259 -11 355q-1 44 -3 85q-53 0 -156 3q-51 0 -51 59q0 61 51 61zM382 1165q1 -241 2 -333q0 -63 2 -116q24 0 46 -1q28 -1 152 1
q48 12 58 -45t-37 -72q-133 -3 -163 -3h-54q1 -34 5 -71q1 -89 8 -314q54 -9 147 9q252 40 371.5 181.5t101.5 299t-176.5 294.5t-462.5 170z" />
    <glyph glyph-name="oe" unicode="&#x153;" horiz-adv-x="1459" 
d="M1236 714q-215 69 -313 -14.5t-103 -206.5v-1q3 -23 3 -44q9 -96 76 -178q85 -102 239 -68q49 12 86 35t76 55q18 11 40 16q28 0 45 -21q36 -45 -12 -85q-64 -49 -126.5 -84.5t-144.5 -40.5q-235 -15 -333 147q-8 10 -13 22q-9 -14 -18 -24q-124 -126 -290 -127.5
t-301.5 118t-97.5 356.5q17 94 82 172.5t168 114.5q156 51 311 -25q105 -50 155 -135q55 75 148 131q171 98 477 -40q31 -18 26 -54q0 -30 -23 -49l-66 -50q-65 -50 -143 -110.5t-144 -108.5l-65 -51q-47 -37 -83 10q-36 46 11 86l118 93q122 91 215 161zM179 535
q-25 -170 75.5 -245t215.5 -62t188 110q36 45 39 107v36q-5 57 -36 130q-50 114 -193 140.5t-239 -93.5q-40 -50 -50 -123z" />
    <glyph glyph-name="ae" unicode="&#xe6;" horiz-adv-x="1318" 
d="M1092 714q-211 69 -311 -14.5t-103 -206.5t80 -224t237 -67q50 12 87 35t75 55q17 11 39 16q28 0 47 -21q36 -45 -13 -85q-65 -49 -127 -84.5t-144 -40.5q-188 -11 -288 88v-26q5 -59 -55 -63q-61 -3 -63 57v35q-232 -121 -354 -80.5t-147.5 143.5t39.5 226t207 167
q113 34 250 0q-20 95 -87.5 126t-225.5 -28q-3 -2 -8 -4q-56 -26 -79 29q-26 54 28 80q206 80 309.5 46.5t143.5 -140.5q4 -9 7 -19q52 64 134 113q172 98 476 -40q32 -18 27 -54q0 -30 -22 -49l-65 -50q-66 -50 -144.5 -110.5t-143.5 -108.5l-66 -51q-46 -37 -83 10
q-36 46 11 86l121 93q119 91 211 161zM540 503q-89 27 -170 9q-100 -24 -156 -99.5t-47.5 -137t90.5 -76.5t298 104q3 54 4 102q-6 47 -4 94z" />
    <glyph glyph-name="Ccedilla" unicode="&#xc7;" horiz-adv-x="981" 
d="M778 1117q-267 120 -435 -40.5t-163.5 -390t164.5 -373t425 -48.5q129 62 154.5 -19t-207.5 -128q-58 -14 -110 -15q-2 -67 -1 -77q283 -125 203 -200.5t-340 -116.5q-61 -2 -61 57q-5 60 56 60q5 3 18 3q36 6 89 16.5t93 25.5q-58 33 -96.5 44.5t-57.5 40.5
q-28 33 -22 150q-157 23 -270 149q-186 207 -160.5 484.5t240 456t553.5 16.5q48 -36 12 -80q-36 -54 -84 -15z" />
    <glyph glyph-name="OE" unicode="&#x152;" horiz-adv-x="1759" 
d="M1079 1145q-4 -26 -6 -43q-7 -66 -19 -158.5t-16 -188.5q111 7 195.5 16.5t201.5 17.5q62 0 62 -61q0 -58 -61 -58q-114 -8 -200 -17t-196 -19h-6q-2 -126 16 -234.5t71.5 -164.5t148.5 -40.5t244 139.5l57 54q4 0 6 3t6 5q37 28 74 -3q43 -41 7 -85q-51 -47 -75 -70.5
t-82 -57.5q-275 -164 -401 -87q-125 77 -164 259q-75 -149 -191 -198q-291 -128 -463 16.5t-214 377.5t50.5 458.5t338.5 255.5q92 9 204 -12q195 -48 281 -193q4 45 10 82q8 125 153 127t189.5 2t91 -1t229.5 -6q61 0 61 -59t-61 -59q-164 2 -211 4t-89.5 2t-86.5 -1.5
t-155 -2.5zM457 1138q-164 -32 -233 -199.5t-45 -340.5t136 -296t311 -64q136 34 210 166q74 130 79 277v3v13q4 143 -57 266q-64 129 -205 166q-100 27 -196 9z" />
    <glyph glyph-name="AE" unicode="&#xc6;" horiz-adv-x="1410" 
d="M319 470l252 34q-12 129 0 272q13 158 25 271l-5 13zM693 611q26 -320 78 -377q31 -32 76 -41q167 -9 318 141l57 54q2 0 4.5 3t6.5 5q36 28 75 -3q42 -41 5 -85q-255 -231 -379.5 -239.5t-177.5 24.5q-127 78 -165 265l-5 28h-2q-31 -3 -146.5 -17t-167.5 -19l-117 -238
q-22 -61 -77 -38q-50 12 -39 74l86 185q-82 -6 -82 53t53 68q15 0 76 2l364 813q19 56 75 40q17 -8 46 -72q38 29 105 29q146 2 190.5 2t91 -1t229.5 -6q61 0 61 -59t-61 -59q-164 2 -210.5 4t-89.5 2t-87 -1.5t-156 -2.5q-3 -26 -4 -43l-6 -38q-29 -262 -6 -293
q12 -7 73.5 -4.5t96.5 4.5q85 10 202 18q62 0 62 -61q0 -58 -59 -58q-318 -32 -394 -59z" />
    <glyph glyph-name="cedilla" unicode="&#xb8;" horiz-adv-x="565" 
d="M202 183q1 1 8.5 5.5t18 6t22.5 -2.5t20.5 -21.5t12 -50.5t-1.5 -89v-5q283 -125 203 -200.5t-341 -116.5q-60 -2 -60 57q-6 60 55 60q5 3 19 3q35 6 88 16.5t93 25.5q-57 33 -95.5 44.5t-58.5 40.5q-69 136 17 227z" />
    <glyph glyph-name="plusminus" unicode="&#xb1;" horiz-adv-x="769" 
d="M117 768q76 0 122 -3t75 -3q0 34 -0.5 82t-4.5 124q-1 62 56 65q61 3 64 -55q2 -83 2.5 -132.5t0.5 -83.5q30 2 75.5 4t121.5 3q52 12 57 -47q11 -57 -38 -71q-84 -3 -132.5 -4.5t-79.5 -4.5q0 -28 2.5 -83t2.5 -152q0 -58 -59 -62q-63 0 -63 59q0 100 -2 153t-2 85
q-28 0 -75 1.5t-123 1.5q-49 0 -49 62q0 61 49 61zM118 236q132 0 182 -1t82 -1t77 1t168 3q49 12 61 -45q9 -59 -40 -72q-131 -4 -180 -6.5t-81 -2.5h-82t-187 4q-50 0 -50 60t50 60z" />
    <glyph glyph-name="eth" unicode="&#xf0;" 
d="M396 1158l23 -23l23 -22l21 21q21 23 39.5 42t31.5 36q28 30 59 5q27 -24 6 -47l-72 -85h1q-5 -8 -12 -15l-17 -17l39 -39q12 -11 25 -26t30 -33q24 -23 12 -36q-22 -20 -39.5 -23t-33.5 13l-87 91l-45 -47q2 0 -3 -4t-13 -12l-9 -9h1l-18 -22q-14 -6 -24 -7t-20 0
q-19 7 -29 29q-2 7 4 17.5t14 20.5l6 2h-1l53 60l27 29l-30 28l-71 79l4 -3q-32 21 -9 46q18 33 64 5zM179 535q-25 -170 75.5 -245t215.5 -62t189.5 110.5t1.5 272.5q-50 114 -193 140.5t-239 -93.5q-40 -50 -50 -123zM299 856q156 51 312.5 -23.5t190.5 -227.5
q60 -256 -64 -382.5t-290 -128t-301.5 118t-97.5 356.5q17 94 82 172.5t168 114.5z" />
    <glyph glyph-name="oslash" unicode="&#xf8;" 
d="M684 954l-49 -134q134 -75 167 -215q60 -256 -64 -382.5t-293 -128.5q-40 0 -80 5l-46 -123q-16 -56 -72 -39q-57 13 -45 69l48 132q-54 28 -106 73q-133 121 -95 358q17 94 82 172.5t168 114.5q112 37 226 7l46 121q14 61 73 42q57 -15 40 -72zM179 535
q-25 -170 76 -246q21 -17 43 -28l183 488q-8 1 -13 2q-143 27 -239 -93q-40 -50 -50 -123zM469 228q116 13 190.5 110.5t1.5 272.5q-25 56 -71 91l-175 -475q26 -3 54 1z" />
    <glyph glyph-name="germandbls" unicode="&#xdf;" horiz-adv-x="895" 
d="M84 1150q27 64 73.5 103t101.5 58t113.5 20t111.5 -11.5t94.5 -35.5t61.5 -52q29 -44 30.5 -99.5t-16 -115t-50 -118.5t-70.5 -110q66 -31 119.5 -78.5t91.5 -105t58 -120.5t18.5 -124.5t-27 -118t-78.5 -100t-135.5 -70.5t-198.5 -30q-35 5 -52 25t-16 42t19 40.5
t53 20.5q57 -2 89.5 -2.5t53.5 2.5t36 9.5t36 17.5q61 34 86 82t21 100.5t-32 105.5t-72.5 98t-101 76.5t-116.5 42.5q-27 4 -28.5 27.5t12.5 58t38.5 76.5l49 84t44 80t23.5 65q6 38 -10 62.5t-43.5 37t-63 15.5t-69.5 -1t-62 -13t-41 -20q-2 -1 -6.5 -7.5t-10 -17t-11 -24
t-7.5 -29.5l-4 -532v-441q0 -60 -60 -73q-60 17 -61 59q1 30 0 451q-2 245 1 553z" />
    <glyph glyph-name="bracketleft" unicode="[" horiz-adv-x="523" 
d="M411 1527q61 0 73 -61q13 -64 -77 -64h-136l-74 2v-743v-717q41 0 102 1l112 2q61 0 73 -60q13 -63 -77 -63l-276 1q-3 0 -9 1q-46 -1 -46 50q1 51 0 816l-2 765q0 34 20 53q9 10 23 13q11 4 18 5q24 5 276 -1z" />
    <glyph glyph-name="Thorn" unicode="&#xde;" horiz-adv-x="845" 
d="M74 1347q0 62 61 74q62 12 62 -49v-214q266 92 408 -26q164 -141 164 -334t-160 -322q-142 -117 -412 10v-393q0 -61 -60 -73q-61 -10 -61 48zM197 615h1q221 -122 335.5 -33t117 222t-113.5 226q-112 91 -340 -4v-411z" />
    <glyph glyph-name="thorn" unicode="&#xfe;" horiz-adv-x="919" 
d="M338 1063q155 51 311 -23.5t192 -225.5q60 -259 -65 -385t-292 -127q-157 -3 -287 105v-314q0 -61 -60 -73q-61 -10 -61 48l-2 1279q0 62 61 74q62 12 62 -49v-392q58 55 141 83zM216 743q-23 -171 77 -246t215 -62t190.5 111.5t2.5 272.5q-53 114 -195.5 140t-237.5 -92
q-41 -53 -52 -124z" />
    <glyph glyph-name="periodcentered" unicode="&#xb6;" horiz-adv-x="1082" 
d="M624 548l-7 -452q-1 -54 -59.5 -57t-53.5 71l-3 557q-359 -4 -345 322t473 286zM724 104q-4 -74 54 -72q58 5 62 60l7 1063l72 3h30q91 0 78 64q-11 60 -72 60q-146 0 -169 -3q-9 -1 -17 -6q-16 -2 -24 -12q-20 -18 -20 -54l1 -771z" />
    <glyph glyph-name="sterling" unicode="&#xa3;" horiz-adv-x="933" 
d="M118 640q-14 -4 -25.5 0t-19.5 13t-13 22t-5 26q0 18 13 39v-1q12 21 30 33t39.5 17t45.5 6t49 1l-18 51q-16 31 -28.5 66.5t-19.5 70.5q-5 21 -6 42.5t-1 41.5q0 70 21 125t57 93t84.5 57.5t104.5 19.5q72 0 153 -38t154 -107q15 -13 22 -28t7 -29q0 -18 -8.5 -33.5
t-21 -25t-28 -10.5t-29.5 10q-77 78 -136 111t-103 33q-36 0 -62 -17t-43.5 -45t-25.5 -64t-8 -73q0 -42 11 -83t29 -73q18 -30 28.5 -55.5t17.5 -54.5q8 0 33.5 -4t55.5 -8.5t57.5 -8.5t39.5 -4q8 0 16 1t10 2q28 21 50 21q27 0 44.5 -19.5t17.5 -45.5q0 -11 -3.5 -22.5
t-14.5 -22.5q-20 -18 -54.5 -25.5t-75.5 -8t-84 4t-80 10.5q-7 -90 -31.5 -175.5t-64.5 -162.5q44 13 82.5 19t69.5 6q58 0 99 -14t73 -27h-1q3 -3 5 -3q23 -9 44 -17.5t41 -8.5t40 7.5t44 26.5q16 10 30.5 13.5t28.5 3.5q29 0 46.5 -18t17.5 -44q0 -19 -15 -38.5t-43 -29.5
q-45 -27 -80 -38.5t-67 -11.5q-35 0 -63 10t-58 22q-34 15 -73.5 27t-90.5 12q-48 0 -112 -15t-152 -56q-21 -4 -38 0t-28 13.5t-15 24.5t0 33l28 51l21 42q23 42 44.5 82.5t39 81.5t30 84t17.5 90q1 5 -1.5 15.5t-2.5 16.5z" />
    <glyph glyph-name="comma.001" unicode="&#x201a;" horiz-adv-x="344" 
d="M239 138q-44 -81 -79 -114q-29 -24 -63 -10q-23 35 7 60q18 18 49 81q-85 -2 -69 72q15 58 95 38q109 -18 60 -127z" />
    <glyph glyph-name="comma" unicode="," horiz-adv-x="344" 
d="M239 138q-44 -81 -79 -114q-29 -24 -63 -10q-23 35 7 60q18 18 49 81q-85 -2 -69 72q15 58 95 38q109 -18 60 -127z" />
    <glyph glyph-name="bullet" unicode="&#x2022;" horiz-adv-x="355" 
d="M138 840q45 16 91 -5.5t56 -66.5q17 -76 -19.5 -113.5t-85.5 -38t-88 35.5t-29 104q5 27 24.5 50.5t50.5 33.5z" />
    <glyph glyph-name="emdash" unicode="&#x2014;" horiz-adv-x="1255" 
d="M118 768q132 0 435.5 -2t334.5 -2t77 2t170 3q47 12 58 -45q9 -59 -38 -73q-131 -3 -180.5 -4.5t-81.5 -3t-335 0t-440 3.5q-50 0 -50 60q0 61 50 61z" />
    <glyph glyph-name="endash" unicode="&#x2013;" horiz-adv-x="968" 
d="M118 768q132 0 289 -2t188 -2t77 2t170 3q49 12 59 -45q11 -59 -39 -73q-129 -3 -178.5 -4.5t-82 -3t-189.5 0t-294 3.5q-50 0 -50 60q0 61 50 61z" />
    <glyph glyph-name="A" unicode="A" horiz-adv-x="898" 
d="M32 166l62 184l-1 -1q-55 -5 -55 55q0 58 55 66q11 0 42 3q40 123 85 263t84 258.5t64.5 196.5l25.5 78q20 56 78 40q21 -9 60 -111t77 -231t71.5 -250.5t49.5 -168.5q20 0 84 10q54 6 58 -54q0 -61 -52 -68q-20 0 -56 -5l87 -293q16 -56 -40 -76q-60 -14 -73 41l-94 312
q-84 -15 -123.5 -20.5t-73 -8.5t-81 -9t-142.5 -13q-31 -104 -53.5 -170l-22.5 -66q-20 -52 -75 -36q-51 12 -41 74zM610 528l-156 532l-189 -573q149 17 182.5 21t162.5 20z" />
    <glyph glyph-name="at" unicode="@" horiz-adv-x="1779" 
d="M602 927q-96 12 -151 -73t-66.5 -211t19 -263t105.5 -231q52 -65 127.5 -90t177.5 13q124 49 169.5 227.5t27.5 370.5q-14 138 -52 243q-40 119 -100 179q-78 74 -182.5 43.5t-138.5 -119.5q68 -37 152.5 7t64.5 82q36 -5 -1 -95t-151 -83h-1zM506 497l1 -2
q16 -14 -0.5 -19.5t-16.5 13.5q1 9 11 9q2 0 5 -1zM459 489q0 -1 1.5 -1h1.5q14 -16 -1.5 -22t-14.5 12q1 10 10 12l1 -0.5t2 -0.5zM471 526l0.5 -0.5t1.5 -0.5q14 -13 -2 -20t-15 12q1 9 10 9h5zM964 522q1 0 1 -4q2 -20 -14 -14t-2 20q6 7 13 0l0.5 -1t1.5 -1zM922 543
q2 0 2 -1q3 -20 -13.5 -14.5t-1.5 19.5q6 6 12 0q1 -2 1 -4zM956 567q0 -2 0.5 -2.5l0.5 -0.5q1 -21 -14 -15.5t-2 20.5q8 6 14 0q1 -1 1 -2zM717 593q6 -24 -3 -63l-9 -39l73 -7l-69.5 -10.5t-43.5 13.5q27 23 39.5 64.5zM672 717l-16 3q4 -4 5 -9q4 -9 7 -21
q8 -96 -38 -124.5t-93 -12.5t-67.5 65.5t40.5 116.5q25 18 59 21l-78 31l-29 49q-9 13 29 8.5t87.5 -17t89 -27t28.5 -20.5q-17 -14 -20.5 -38.5zM745 732q-14 28 -34 38q-11 6 25 33.5t81 57.5t82 47.5t31 0.5l-26 -62l-53 -51q32 -3 55 -18q13 -12 21 -28q4 -8 8 -21
q6 -87 -33 -118.5t-84 -23t-73.5 48t0.5 96.5zM793 349l5 -40l0.5 1t0.5 2q9 7 9 30.5v43.5l-66 -5v-9v-7q0 -25 1 -28q2 -5 9 -12q10 -10 22 -14q3 -2 13 -3q0 24 6 41zM702 339l6 -44h1l2 2q10 10 10 34.5t-1 42.5v3l-69 -7q1 -5 1 -18q0 -26 2 -29q2 -4 7 -10
q14 -13 25 -17q3 -1 10 -2q-2 25 6 45zM619 227q36 35 80 50q-21 0 -57 23h-1v3l-2 18v0v1l-2.5 15.5t-2.5 30.5l-81 -8q-21 -1 -13.5 -35.5t25.5 -54.5q23 -27 54 -43zM718 280q75 16 117 -35q32 19 53 46q15 18 24 62t-10 43l-80 -9q10 -73 -15 -92q-21 -18 -73 18
q-4 -24 -16 -33zM819 236q-39 42 -82 33t-95 -51q87 -30 177 18zM904 766q-1 4 -6 7q-19 15 -41 -1q-36 -39 9 -55.5t41 42.5q0 3 -3 7zM1120 614q16 76 62 109t95 29.5t84 -44t26 -112.5q-4 -25 -12 -42q61 37 92 122.5t27.5 177t-45 170t-124.5 103.5q15 -37 -13.5 -44.5
t-65.5 10t-64.5 56.5t-13.5 93q20 68 98 78.5t156.5 -46.5t127 -188t3.5 -348q-31 -151 -136 -227t-310 36q-2 3 -6 4.5t-6 4.5q-8 -188 -79.5 -340.5t-201.5 -183.5q-192 -42 -299.5 45.5t-153 230t-36 299.5t53.5 253l4 7v8q-6 91 56 183q87 132 214 170.5t288 -115.5
q74 -82 113 -208.5t42 -262.5q14 -14 24 -28zM1271 621l14 -3l-6 -33q-8 0 -10 1h-1.5h-1.5zM1304 615l14 -3q-1 -1 -2 -5q-6 -9 -10 -13q-2 -3 -7 -5zM1323 629l-47 9l3 14q7 -3 15 -4t15 -2q-5 15 -16 19q-5 2 -13 3l-16 5l-3 -19l-13 -65l-12 2l2 14l7 28q5 32 -12 49
l-17 -105l30 -6l-5 -28v0v-1v0v0h1v0v1q11 5 18 16q3 6 4 9l6 -1q6 -2 15 -2q13 2 19 4q8 5 14 10t14 17q7 14 8 27q2 17 0 32q-1 12 -13 26q-7 9 -20 13q-5 3 -13 4q-3 0 -6 1t-7 1l-40 7l-24 4q5 -14 17 -18q2 -3 17 -5q9 -4 23.5 -5.5t23.5 -6.5q1 -1 2.5 -1h3.5l8 -8
q8 -9 10 -18q1 -8 1 -20zM911 425l35 -2q-29 -305 -318 -230q-128 34 -126.5 122.5t19.5 91.5q95 10 195 15t195 3zM629 725q-3 4 -7 10q-19 14 -40 -2q-36 -40 9.5 -56t39.5 41q0 2 -2 7z" />
    <glyph glyph-name="numbersign" unicode="#" horiz-adv-x="2161" 
d="M1079 1930q214 0 401.5 -80.5t324.5 -217.5q139 -141 220.5 -327t81.5 -400q0 -124 -29 -239.5t-82 -220.5q-111 -220 -308 -363l-41 -34q-27 -90 -95 -160q-50 -50 -119.5 -80t-147.5 -30q-74 0 -140 27t-117 75l-53 4q-196 21 -364.5 109.5t-293.5 224.5
q-122 137 -192.5 313.5t-70.5 373.5q0 142 36.5 273t103.5 243v2q65 113 161 209q137 137 325.5 217.5t398.5 80.5zM1276 480q60 0 113 -23.5t92 -63t63 -92t24 -112.5q0 -61 -24 -113.5t-63 -92.5t-92 -62t-113 -22q-61 0 -113 22t-92 62t-62 92.5t-22 113.5q0 60 22 112.5
t62 92t92 63t113 23.5zM1294 163h31v-81q-12 -2 -27 -2h-2h-2v83zM1368 163h36q-1 -4 -2 -15q-7 -18 -17 -34q-8 -9 -17 -14v63zM1408 206h-114v31h38.5h36.5q-9 16 -19.5 25t-25.5 13q-13 5 -31 5h-40v-43v-157h-29v31v72q0 39 -6.5 61.5t-41.5 45.5v-255h77v-68
q14 11 23 20.5t13 23.5q4 12 5 24h19q19 4 32 5q23 6 42 16q17 13 32 29q15 19 24 46q9 26 9 65q0 42 -13 75q-13 34 -41 54q-21 19 -51 24q-13 2 -34 5h-15h-16h-97h-60q11 -17 22 -26t26 -13q17 -4 41 -4q23 0 58.5 0.5t59.5 -5.5q5 -1 10 -3q14 -4 26 -14q22 -18 31 -39
q7 -19 9 -44zM1079 1813q190 0 355.5 -72t289.5 -195t195.5 -288.5t71.5 -354.5q0 -73 -13 -144v0q-29 -181 -123.5 -332.5t-233.5 -255.5v8v10q0 122 -76 214t-189 120v0q-40 9 -80 9q-71 0 -134 -26t-110 -73.5t-74.5 -110.5t-27.5 -133q0 -105 58 -192q-173 17 -322.5 95
t-259 199t-173.5 278t-64 334q0 176 63 332.5t174 278.5v0q106 119 251 195.5t314 97.5v0q51 6 108 6zM1709 1039v0q1 4 3 6q0 2 11 25q8 18 -14 22q-23 4 -36 3q-9 -2 -13 -6v0q-7 -4 -8 -10q-13 -30 -13 -77q0 -46 9 -86q-39 53 -70 86q-38 42 -76 69q-2 3 -8 5h-13
q-9 0 -34 -11l-2 -1.5t-6 -3.5q-17 15 -39 18q-22 -2 -44 -18q-19 -20 -27 -48q-6 -26 -4 -45q3 -24 9 -44q-9 -35 -5 -70q3 -20 10 -48h-2h-1h-2q-21 -1 -49 -9v0v0v0v0v0h-0.5h-0.5v0v0v0v0q-8 -2 -20 -8q0 8 -0.5 20.5t-1.5 27.5q-2 16 -2 24q0 10 -2 19q-5 34 -16 64
q-6 21 -21 50q3 0 -1 9v2q4 2 14 2q3 2 16 4q5 2 15 4q4 1 7.5 2.5t8.5 1.5q-16 -9 -19 -16q-19 -16 -17 -19q2 -5 15 1q9 4 15.5 7.5t9.5 5.5q9 5 12 7q4 1 5.5 2.5t3.5 1.5q4 1 9 6q4 4 10 5q9 7 9 18q-2 16 -23 20q-10 1 -30 0q-31 -3 -44 -5q-4 0 -7 -1l-6 -2h-6.5
t-5.5 -1q-2 12 -9 40q-8 31 -12.5 56.5t-8.5 40.5q-9 57 -10 99q-4 44 5 83q2 8 4.5 16.5t4.5 21.5q7 18 10 27l3 9q6 27 -19 28q-25 2 -35 -5q-4 0 -12 -6q-21 -16 -39 -51q-23 -40 -32 -65q-18 22 -33 39.5t-26 29.5q-32 34 -50 47q-3 0 -10 2q-6 4 -13 4q-16 -1 -37 -13
q-9 -2 -13 -6q0 -2 -4 -2h-3.5h-3.5q-34 -2 -45 -3q-31 -6 -48 -8q-3 5 -5 8q-11 13 -28 13q-9 -2 -38 -15q-23 -10 -37 -20q-25 -17 -16 -39q4 -21 31 -19q14 0 27 4q12 2 30 8q0 -1 1 -2q2 -3 4 -2q20 -24 38 -66q-30 -18 -38 -35q-13 -13 0 -26q8 -13 28 -5q1 0 11 6
q13 4 20 7q1 -7 3 -12.5t6 -12.5q2 -15 8 -24q7 -37 9 -50v0v0v0v0q-22 -17 -42 -35v0l-6.5 -6.5t-5.5 -4.5q-11 -19 -2 -29q9 -13 25 -12v0v0q7 2 19 8h3q1 1 5 3v0q9 6 18 13v0.5t1 0.5q0 1 1 1h1v1t1 2q0 1 1 2.5l1 1.5q4 5 4 14q2 8 9 12q7 5 14 9.5t16 9.5v0
q30 16 60 16q21 -3 35 -13q9 -11 9 1q-1 9 -3 11q-10 16 -28 20q-21 7 -36 8q-39 -3 -71 -18h-2v0v2v0q-1 32 -3 48q-1 15 -3.5 25t-2.5 18q-1 4 -3 8q-1 5 -1 10q-3 7 -4 10q-1 2 -1 6q36 22 84 36q9 3 23 4q3 0 3 3q-4 4 -6 2l-4 4h-2.5h-0.5q-22 5 -53 0q-26 -6 -53 -14
q-12 34 -26 61q20 4 31 10q9 0 18 3q3 1 7.5 3t10.5 2q-5 -4 -14 -10q-4 -5 -4 -7h-3v0q-20 -20 -18 -22q3 -2 15 0q12 7 27 16l16.5 7.5l5.5 2.5q2 3 5 5q3 0 8 4q5 -6 10 -12.5t9 -9.5q34 -39 53 -102q20 -57 30 -116q4 -19 8 -30q1 -6 5 -25q4 -24 13 1q7 31 4 82
q-6 54 -10 81q-4 21 -15 57q11 -10 21 -19q12 -11 21 -18q8 -8 17 -16q4 -4 7 -6.5t6 -3.5q1 0 6 -5q3 -3 5 -3l4 -1l3 2q0 7 -3 8q0 5 -0.5 7l-0.5 2q-10 23 -28 47q5 10 5 9q5 1 17 18q5 5 23 29q-4 -95 26 -205q17 -66 37 -117q-13 6 -20 5q-17 -2 -39 -12
q-27 -15 -33 -18q-2 -1 -3 -2.5t-1 -2.5q-2 0 -2 -0.5v-0.5q-9 14 -20 21q-40 19 -73 -12q-24 -21 -32 -42q-4 -9 -7 -32q-2 -4 -4 -12v0q-4 -15 -5 -31q0 -25 6 -35q4 -15 23 -14q15 0 27 0.5t21 0.5v1l26 4q39 3 50 -35q9 -23 7 -54v0l-0.5 -2t-0.5 -5q-5 -28 -12 -57
q-59 15 -85 47q-26 31 15 86q7 6 -13 -4q-16 -12 -28 -33q-16 -27 -13 -54q0 -31 45 -60q8 -5 43 -23q1 0 1 -3q-48 -10 -93 -26v1v1v0v0q-13 44 -13 86q0 11 -0.5 21.5t-0.5 17.5q0 9 -1 20t-1 21q-1 40 -23 63q17 36 8 68q-11 35 -48 55q-20 11 -48 21q-34 9 -52 9
q-42 3 -55 -18q-2 0 -2 -4q-9 4 -12 4q-10 1 -28 0q-26 -1 -46 -6q-13 0 -22 -3q-8 -1 -21 -3q0 3 -5 8q-13 12 -28 11h-1t-1 -2h-2.5h-0.5q-2 -1 -3 -1h-2h-1q-22 -1 -36 -7q-12 -5 -21 -18q-2 -2 -4 -2q-24 -17 -15 -39q2 -9 5 -12v-20v-23q-3 -58 0 -91v-14q1 -2 2 -6
t2 -11q6 -27 8 -31q-46 30 -66 79q-28 54 -38 92q21 -3 38 8q16 13 16 42q2 28 -9 13q-18 -22 -28 -22q-12 -3 -22 7q-5 2 -20 21q-11 14 -18 18q-19 8 -36 -6q-13 -21 6 -69q24 -53 57 -106q34 -56 77 -107q45 -53 67 -64q13 -10 17 2q3 11 3 22q-3 20 -5 30q-2 9 -2 12
v3.5v3.5q-6 42 -7 109q0 57 15 107q21 6 23 6l3 -5q23 -26 36 -62q-20 -16 -36 -31q-13 -16 0 -29q8 -12 27 -4q5 4 13 7q7 2 17 8q4 -15 8 -27t8 -25q1 -7 3.5 -18.5t6.5 -27.5v0v0q-28 -17 -51 -43q-12 -15 -2 -29q6 -12 23 -9v0v0q3 0 20 7v0q10 4 26 15v0.5v0.5v0.5v0.5
v0v0l0.5 0.5l0.5 0.5q3 0 3 2v1.5v2.5q0 1 3 11q0 7 8 15q14 10 29 16v0q33 15 59 13q17 0 29 -9q10 -7 10 0q0 4 -2 8q-8 16 -28 22v0q2 0 4 4q25 13 42 21q2 -14 5 -30q3 -8 4 -14.5t4 -14.5q0 -10 2 -15q0 -5 2 -13q1 -4 4 -14q1 -8 4 -15q6 -26 9 2q6 26 3 65
q-2 27 -5 73q16 11 34 26q16 3 16 -29q0 -37 5 -81q4 -40 22 -84q-18 -5 -32 -11t-25 -11q-168 -70 -229 -208q-60 -139 156 -167q-15 8 -41 18q-24 8 -39 20q-98 80 -2 182q73 78 244 135q22 -20 51 -28q-17 15 -30 34q119 35 248 46v0q116 11 236 -2q258 -25 301 -213
q45 123 -52 191q-96 67 -261 83q25 10 34 44q10 43 12 80v25.5v17.5q-2 15 -6 40q-6 38 -29 91q2 -1 6 -4.5t8 -8.5q32 -42 50 -99q21 -51 32 -111q0 -7 2 -11q3 -9 3 -14q2 -19 5 -26q5 -24 12 0q6 31 3 79q-3 51 -10 78q-1 18 -13 55q26 -31 53 -66q15 -24 28.5 -44
t26.5 -41q24 -44 30 -49q7 -12 13 -9q2 10 2 14q0 9 -5 27q-3 9 -4 16q-3 9 -3 14q-12 48 -16 109q-6 60 13 101q2 13 6 20zM1336 1425v2q-21 44 -54 55v0q-6 2 -13 3q-24 -3 -45 -19q-19 -23 -29 -50q-7 -22 -3 -45q0 -26 7 -46q-9 -37 -4 -74q3 -41 17 -70q15 -35 41 -62
q28 -28 60 -22q38 5 51 52q12 45 12 86q0 28 -2 41q-2 16 -2.5 24.5t-2.5 15.5q-10 48 -32 107l-0.5 0.5t-0.5 1.5zM722 1181q31 70 -12 128q-44 57 -100 94q-20 9 -46 20q-30 11 -50 15q-18 -2 -27 -11v-2q-5 -5 -5 -10q-5 -23 8 -31q18 -18 40 -56q3 -10 6 -18.5t7 -15.5
q6 -15 10 -24q15 -38 28 -86q16 -54 20 -91q-7 -8 -16 -15q-10 -11 -17 -15q-4 -3 -6.5 -5l-2.5 -2l-8 -9v-3h2q4 0 17 5q8 4 11.5 6l3.5 2q40 19 80 52q38 24 56 71q0 1 0.5 1h0.5zM562 949v0v0zM1224 1267q16 -27 36 -38q13 -11 30 -7q20 2 0 13q-19 6 -28 24
q-15 21 -20 42q-8 17 -13 56q-5 33 13 51q13 16 27 10q15 -13 25 -45q7 -24 12 -57q4 -9 4 -15v-9q1 -7 3 -8q0 -26 6 -57q0 -35 -4 -57l-1 -1t-1 -3h-1t-1 -1v-1v-1h2v0q-7 -5 -12 -4q-21 2 -37 21q-19 21 -24 40q-13 21 -16 47zM618 1108q4 44 -6 98q-11 60 -17 91
q-5 9 -8 21q-2 5 -2 7v2q-2 0 -2.5 1t-0.5 3q-1 5 -1 14q1 -4 6 -7l8 -3q32 -23 69 -56q20 -25 20 -57v0q0 -13 -5 -31q-9 -26 -24 -45q-16 -18 -37 -38zM764 766q-12 4 -21 3q-34 0 -68 -17v0h-2v0q0 26 -2 48q-2 10 -4 21.5t-2 21.5l-1 6q-3 3 -3 11q-3 2 -5 15
q37 22 80 30q16 5 22 5t6 3l-8 5q-5 3 -8 3q-25 5 -48 -2q-30 -6 -51 -15q-13 32 -27 62q8 1 31 8q5 1 16 3q8 1 17 5q-6 -5 -13 -12q-3 -3 -5 -6q-20 -17 -16 -19q1 -2 13 2q22 9 27 13q9 6 13.5 8l4.5 2q4 3 18 13l1 0.5l1 0.5q2 2 2 3q2 -8 13 -16q20 -22 38 -67
q6 -18 14 -41t17 -47l-3 -3t-7 -6q-17 -12 -8 -8q-4 -3 -20 -20q-10 -9 -12 -13zM796 799q4 4 0 1v-1zM1097 975q4 0 5 1l1 1q16 0 25 2q23 7 29 8q5 -10 5 -5q26 -37 49 -96q16 -65 26 -112v0v0v0h1h1h1q-30 -22 -54 -45q-10 -11 -6 -24h1q0 -1 1 -2q-9 -1 -17 -3l-16 -4
q-20 -2 -35 -4q5 8 8 17q6 17 14 43v0q1 4 2 13q4 39 4 65q-2 34 -10 57q-13 32 -48 35q-51 0 -84 -3q2 25 5 47q2 22 22 40q23 8 40 -20q18 -33 17 -48q13 13 13 37zM1350 778q10 -30 36 -51q7 -9 16 -12q-77 1 -157 -6q1 2 1.5 2.5t3.5 0.5v0l5 6v2v0v0h0.5h2.5v0v0v0v1v0
v0q2 3 4 13q0 5 7 12q16 15 42 24q17 8 39 8zM887 927q5 -14 -11 -39q-19 -27 -28 -37q0 1 -1 1v0.5v0.5q-10 35 -15 57q-5 28 -18 57q26 -7 43 -16q23 -7 30 -24zM1356 869q17 -26 37 -36q9 -8 29 -7q17 1 0 9q-19 8 -29 26q-8 17 -19 40q-9 21 -13 55q-5 32 13 50
q12 13 24 6q15 -10 27 -41q4 -22 7 -35.5t5 -17.5q0 -8 2 -17q0 -6 2 -15q1 -4 2 -19t4 -36q3 -35 -4 -53v-0.5v-0.5v-1.5v-1.5q-1 -1 -1.5 -2.5l-0.5 -1.5v0q-6 -6 -13 -2q-16 1 -32 18q-19 24 -24 36q-11 20 -16 47zM242 1366q-58 -104 -89.5 -221.5t-31.5 -243.5
q0 -184 66.5 -348.5t180.5 -293.5q115 -128 273.5 -210.5t341.5 -100.5l39 -4q49 -44 111 -69.5t135 -25.5q75 0 142 29.5t116 78.5q65 65 91 148l32 26q185 133 287 340q49 97 76 206t27 224q0 199 -75.5 373.5t-205.5 303.5q-132 130 -306 206t-373 76q-74 0 -149 -12v0
q-155 -24 -289 -94.5t-239 -175.5q-95 -96 -160 -212v0z" />
    <glyph glyph-name="ampersand" unicode="&#x26;" horiz-adv-x="2161" 
d="M1079 1930q214 0 401.5 -80.5t324.5 -217.5q139 -141 220.5 -327t81.5 -400q0 -124 -29 -239.5t-82 -220.5q-111 -220 -308 -363l-41 -34q-27 -90 -95 -160q-50 -50 -119.5 -80t-147.5 -30q-74 0 -140 27t-117 75l-53 4q-196 21 -364.5 109.5t-293.5 224.5
q-122 137 -192.5 313.5t-70.5 373.5q0 142 36.5 273t103.5 243v2q65 113 161 209q137 137 325.5 217.5t398.5 80.5zM1276 480q60 0 113 -23.5t92 -63t63 -92t24 -112.5q0 -61 -24 -113.5t-63 -92.5t-92 -62t-113 -22q-61 0 -113 22t-92 62t-62 92.5t-22 113.5q0 60 22 112.5
t62 92t92 63t113 23.5zM1294 163h31v-81q-12 -2 -27 -2h-2h-2v83zM1368 163h36q-1 -4 -2 -15q-7 -18 -17 -34q-8 -9 -17 -14v63zM1408 206h-114v31h38.5h36.5q-9 16 -19.5 25t-25.5 13q-13 5 -31 5h-40v-43v-157h-29v31v72q0 39 -6.5 61.5t-41.5 45.5v-255h77v-68
q14 11 23 20.5t13 23.5q4 12 5 24h19q19 4 32 5q23 6 42 16q17 13 32 29q15 19 24 46q9 26 9 65q0 42 -13 75q-13 34 -41 54q-21 19 -51 24q-13 2 -34 5h-15h-16h-97h-60q11 -17 22 -26t26 -13q17 -4 41 -4q23 0 58.5 0.5t59.5 -5.5q5 -1 10 -3q14 -4 26 -14q22 -18 31 -39
q7 -19 9 -44zM1079 1813q190 0 355.5 -72t289.5 -195t195.5 -288.5t71.5 -354.5q0 -73 -13 -144v0q-29 -181 -123.5 -332.5t-233.5 -255.5v8v10q0 122 -76 214t-189 120v0q-40 9 -80 9q-71 0 -134 -26t-110 -73.5t-74.5 -110.5t-27.5 -133q0 -105 58 -192q-173 17 -322.5 95
t-259 199t-173.5 278t-64 334q0 176 63 332.5t174 278.5v0q106 119 251 195.5t314 97.5v0q51 6 108 6zM1709 1039v0q1 4 3 6q0 2 11 25q8 18 -14 22q-23 4 -36 3q-9 -2 -13 -6v0q-7 -4 -8 -10q-13 -30 -13 -77q0 -46 9 -86q-39 53 -70 86q-38 42 -76 69q-2 3 -8 5h-13
q-9 0 -34 -11l-2 -1.5t-6 -3.5q-17 15 -39 18q-22 -2 -44 -18q-19 -20 -27 -48q-6 -26 -4 -45q3 -24 9 -44q-9 -35 -5 -70q3 -20 10 -48h-2h-1h-2q-21 -1 -49 -9v0v0v0v0v0h-0.5h-0.5v0v0v0v0q-8 -2 -20 -8q0 8 -0.5 20.5t-1.5 27.5q-2 16 -2 24q0 10 -2 19q-5 34 -16 64
q-6 21 -21 50q3 0 -1 9v2q4 2 14 2q3 2 16 4q5 2 15 4q4 1 7.5 2.5t8.5 1.5q-16 -9 -19 -16q-19 -16 -17 -19q2 -5 15 1q9 4 15.5 7.5t9.5 5.5q9 5 12 7q4 1 5.5 2.5t3.5 1.5q4 1 9 6q4 4 10 5q9 7 9 18q-2 16 -23 20q-10 1 -30 0q-31 -3 -44 -5q-4 0 -7 -1l-6 -2h-6.5
t-5.5 -1q-2 12 -9 40q-8 31 -12.5 56.5t-8.5 40.5q-9 57 -10 99q-4 44 5 83q2 8 4.5 16.5t4.5 21.5q7 18 10 27l3 9q6 27 -19 28q-25 2 -35 -5q-4 0 -12 -6q-21 -16 -39 -51q-23 -40 -32 -65q-18 22 -33 39.5t-26 29.5q-32 34 -50 47q-3 0 -10 2q-6 4 -13 4q-16 -1 -37 -13
q-9 -2 -13 -6q0 -2 -4 -2h-3.5h-3.5q-34 -2 -45 -3q-31 -6 -48 -8q-3 5 -5 8q-11 13 -28 13q-9 -2 -38 -15q-23 -10 -37 -20q-25 -17 -16 -39q4 -21 31 -19q14 0 27 4q12 2 30 8q0 -1 1 -2q2 -3 4 -2q20 -24 38 -66q-30 -18 -38 -35q-13 -13 0 -26q8 -13 28 -5q1 0 11 6
q13 4 20 7q1 -7 3 -12.5t6 -12.5q2 -15 8 -24q7 -37 9 -50v0v0v0v0q-22 -17 -42 -35v0l-6.5 -6.5t-5.5 -4.5q-11 -19 -2 -29q9 -13 25 -12v0v0q7 2 19 8h3q1 1 5 3v0q9 6 18 13v0.5t1 0.5q0 1 1 1h1v1t1 2q0 1 1 2.5l1 1.5q4 5 4 14q2 8 9 12q7 5 14 9.5t16 9.5v0
q30 16 60 16q21 -3 35 -13q9 -11 9 1q-1 9 -3 11q-10 16 -28 20q-21 7 -36 8q-39 -3 -71 -18h-2v0v2v0q-1 32 -3 48q-1 15 -3.5 25t-2.5 18q-1 4 -3 8q-1 5 -1 10q-3 7 -4 10q-1 2 -1 6q36 22 84 36q9 3 23 4q3 0 3 3q-4 4 -6 2l-4 4h-2.5h-0.5q-22 5 -53 0q-26 -6 -53 -14
q-12 34 -26 61q20 4 31 10q9 0 18 3q3 1 7.5 3t10.5 2q-5 -4 -14 -10q-4 -5 -4 -7h-3v0q-20 -20 -18 -22q3 -2 15 0q12 7 27 16l16.5 7.5l5.5 2.5q2 3 5 5q3 0 8 4q5 -6 10 -12.5t9 -9.5q34 -39 53 -102q20 -57 30 -116q4 -19 8 -30q1 -6 5 -25q4 -24 13 1q7 31 4 82
q-6 54 -10 81q-4 21 -15 57q11 -10 21 -19q12 -11 21 -18q8 -8 17 -16q4 -4 7 -6.5t6 -3.5q1 0 6 -5q3 -3 5 -3l4 -1l3 2q0 7 -3 8q0 5 -0.5 7l-0.5 2q-10 23 -28 47q5 10 5 9q5 1 17 18q5 5 23 29q-4 -95 26 -205q17 -66 37 -117q-13 6 -20 5q-17 -2 -39 -12
q-27 -15 -33 -18q-2 -1 -3 -2.5t-1 -2.5q-2 0 -2 -0.5v-0.5q-9 14 -20 21q-40 19 -73 -12q-24 -21 -32 -42q-4 -9 -7 -32q-2 -4 -4 -12v0q-4 -15 -5 -31q0 -25 6 -35q4 -15 23 -14q15 0 27 0.5t21 0.5v1l26 4q39 3 50 -35q9 -23 7 -54v0l-0.5 -2t-0.5 -5q-5 -28 -12 -57
q-59 15 -85 47q-26 31 15 86q7 6 -13 -4q-16 -12 -28 -33q-16 -27 -13 -54q0 -31 45 -60q8 -5 43 -23q1 0 1 -3q-48 -10 -93 -26v1v1v0v0q-13 44 -13 86q0 11 -0.5 21.5t-0.5 17.5q0 9 -1 20t-1 21q-1 40 -23 63q17 36 8 68q-11 35 -48 55q-20 11 -48 21q-34 9 -52 9
q-42 3 -55 -18q-2 0 -2 -4q-9 4 -12 4q-10 1 -28 0q-26 -1 -46 -6q-13 0 -22 -3q-8 -1 -21 -3q0 3 -5 8q-13 12 -28 11h-1t-1 -2h-2.5h-0.5q-2 -1 -3 -1h-2h-1q-22 -1 -36 -7q-12 -5 -21 -18q-2 -2 -4 -2q-24 -17 -15 -39q2 -9 5 -12v-20v-23q-3 -58 0 -91v-14q1 -2 2 -6
t2 -11q6 -27 8 -31q-46 30 -66 79q-28 54 -38 92q21 -3 38 8q16 13 16 42q2 28 -9 13q-18 -22 -28 -22q-12 -3 -22 7q-5 2 -20 21q-11 14 -18 18q-19 8 -36 -6q-13 -21 6 -69q24 -53 57 -106q34 -56 77 -107q45 -53 67 -64q13 -10 17 2q3 11 3 22q-3 20 -5 30q-2 9 -2 12
v3.5v3.5q-6 42 -7 109q0 57 15 107q21 6 23 6l3 -5q23 -26 36 -62q-20 -16 -36 -31q-13 -16 0 -29q8 -12 27 -4q5 4 13 7q7 2 17 8q4 -15 8 -27t8 -25q1 -7 3.5 -18.5t6.5 -27.5v0v0q-28 -17 -51 -43q-12 -15 -2 -29q6 -12 23 -9v0v0q3 0 20 7v0q10 4 26 15v0.5v0.5v0.5v0.5
v0v0l0.5 0.5l0.5 0.5q3 0 3 2v1.5v2.5q0 1 3 11q0 7 8 15q14 10 29 16v0q33 15 59 13q17 0 29 -9q10 -7 10 0q0 4 -2 8q-8 16 -28 22v0q2 0 4 4q25 13 42 21q2 -14 5 -30q3 -8 4 -14.5t4 -14.5q0 -10 2 -15q0 -5 2 -13q1 -4 4 -14q1 -8 4 -15q6 -26 9 2q6 26 3 65
q-2 27 -5 73q16 11 34 26q16 3 16 -29q0 -37 5 -81q4 -40 22 -84q-18 -5 -32 -11t-25 -11q-168 -70 -229 -208q-60 -139 156 -167q-15 8 -41 18q-24 8 -39 20q-98 80 -2 182q73 78 244 135q22 -20 51 -28q-17 15 -30 34q119 35 248 46v0q116 11 236 -2q258 -25 301 -213
q45 123 -52 191q-96 67 -261 83q25 10 34 44q10 43 12 80v25.5v17.5q-2 15 -6 40q-6 38 -29 91q2 -1 6 -4.5t8 -8.5q32 -42 50 -99q21 -51 32 -111q0 -7 2 -11q3 -9 3 -14q2 -19 5 -26q5 -24 12 0q6 31 3 79q-3 51 -10 78q-1 18 -13 55q26 -31 53 -66q15 -24 28.5 -44
t26.5 -41q24 -44 30 -49q7 -12 13 -9q2 10 2 14q0 9 -5 27q-3 9 -4 16q-3 9 -3 14q-12 48 -16 109q-6 60 13 101q2 13 6 20zM1336 1425v2q-21 44 -54 55v0q-6 2 -13 3q-24 -3 -45 -19q-19 -23 -29 -50q-7 -22 -3 -45q0 -26 7 -46q-9 -37 -4 -74q3 -41 17 -70q15 -35 41 -62
q28 -28 60 -22q38 5 51 52q12 45 12 86q0 28 -2 41q-2 16 -2.5 24.5t-2.5 15.5q-10 48 -32 107l-0.5 0.5t-0.5 1.5zM722 1181q31 70 -12 128q-44 57 -100 94q-20 9 -46 20q-30 11 -50 15q-18 -2 -27 -11v-2q-5 -5 -5 -10q-5 -23 8 -31q18 -18 40 -56q3 -10 6 -18.5t7 -15.5
q6 -15 10 -24q15 -38 28 -86q16 -54 20 -91q-7 -8 -16 -15q-10 -11 -17 -15q-4 -3 -6.5 -5l-2.5 -2l-8 -9v-3h2q4 0 17 5q8 4 11.5 6l3.5 2q40 19 80 52q38 24 56 71q0 1 0.5 1h0.5zM562 949v0v0zM1224 1267q16 -27 36 -38q13 -11 30 -7q20 2 0 13q-19 6 -28 24
q-15 21 -20 42q-8 17 -13 56q-5 33 13 51q13 16 27 10q15 -13 25 -45q7 -24 12 -57q4 -9 4 -15v-9q1 -7 3 -8q0 -26 6 -57q0 -35 -4 -57l-1 -1t-1 -3h-1t-1 -1v-1v-1h2v0q-7 -5 -12 -4q-21 2 -37 21q-19 21 -24 40q-13 21 -16 47zM618 1108q4 44 -6 98q-11 60 -17 91
q-5 9 -8 21q-2 5 -2 7v2q-2 0 -2.5 1t-0.5 3q-1 5 -1 14q1 -4 6 -7l8 -3q32 -23 69 -56q20 -25 20 -57v0q0 -13 -5 -31q-9 -26 -24 -45q-16 -18 -37 -38zM764 766q-12 4 -21 3q-34 0 -68 -17v0h-2v0q0 26 -2 48q-2 10 -4 21.5t-2 21.5l-1 6q-3 3 -3 11q-3 2 -5 15
q37 22 80 30q16 5 22 5t6 3l-8 5q-5 3 -8 3q-25 5 -48 -2q-30 -6 -51 -15q-13 32 -27 62q8 1 31 8q5 1 16 3q8 1 17 5q-6 -5 -13 -12q-3 -3 -5 -6q-20 -17 -16 -19q1 -2 13 2q22 9 27 13q9 6 13.5 8l4.5 2q4 3 18 13l1 0.5l1 0.5q2 2 2 3q2 -8 13 -16q20 -22 38 -67
q6 -18 14 -41t17 -47l-3 -3t-7 -6q-17 -12 -8 -8q-4 -3 -20 -20q-10 -9 -12 -13zM796 799q4 4 0 1v-1zM1097 975q4 0 5 1l1 1q16 0 25 2q23 7 29 8q5 -10 5 -5q26 -37 49 -96q16 -65 26 -112v0v0v0h1h1h1q-30 -22 -54 -45q-10 -11 -6 -24h1q0 -1 1 -2q-9 -1 -17 -3l-16 -4
q-20 -2 -35 -4q5 8 8 17q6 17 14 43v0q1 4 2 13q4 39 4 65q-2 34 -10 57q-13 32 -48 35q-51 0 -84 -3q2 25 5 47q2 22 22 40q23 8 40 -20q18 -33 17 -48q13 13 13 37zM1350 778q10 -30 36 -51q7 -9 16 -12q-77 1 -157 -6q1 2 1.5 2.5t3.5 0.5v0l5 6v2v0v0h0.5h2.5v0v0v0v1v0
v0q2 3 4 13q0 5 7 12q16 15 42 24q17 8 39 8zM887 927q5 -14 -11 -39q-19 -27 -28 -37q0 1 -1 1v0.5v0.5q-10 35 -15 57q-5 28 -18 57q26 -7 43 -16q23 -7 30 -24zM1356 869q17 -26 37 -36q9 -8 29 -7q17 1 0 9q-19 8 -29 26q-8 17 -19 40q-9 21 -13 55q-5 32 13 50
q12 13 24 6q15 -10 27 -41q4 -22 7 -35.5t5 -17.5q0 -8 2 -17q0 -6 2 -15q1 -4 2 -19t4 -36q3 -35 -4 -53v-0.5v-0.5v-1.5v-1.5q-1 -1 -1.5 -2.5l-0.5 -1.5v0q-6 -6 -13 -2q-16 1 -32 18q-19 24 -24 36q-11 20 -16 47zM242 1366q-58 -104 -89.5 -221.5t-31.5 -243.5
q0 -184 66.5 -348.5t180.5 -293.5q115 -128 273.5 -210.5t341.5 -100.5l39 -4q49 -44 111 -69.5t135 -25.5q75 0 142 29.5t116 78.5q65 65 91 148l32 26q185 133 287 340q49 97 76 206t27 224q0 199 -75.5 373.5t-205.5 303.5q-132 130 -306 206t-373 76q-74 0 -149 -12v0
q-155 -24 -289 -94.5t-239 -175.5q-95 -96 -160 -212v0z" />
    <glyph glyph-name="B" unicode="B" horiz-adv-x="899" 
d="M179 1168q1 -102 3 -204t4 -200q18 5 25 5q108 26 215 73l10 5q101 46 161.5 100t47.5 102t-121.5 81.5t-344.5 37.5zM572 802q242 -123 262.5 -283.5t-86 -280.5t-290 -160t-346.5 70q-31 17 -31 54q-8 258 -10.5 354t-3 159t-3 158t-7.5 348v1.5v2.5q0 62 60 62h0.5
h0.5q301 0 448.5 -47.5t184.5 -120t-16.5 -157.5t-162.5 -160zM201 234q114 -72 251 -37t209 123.5t38.5 204t-254.5 203.5q-105 -47 -253 -87v-15v-2.5v-0.5q0 -51 0.5 -122.5t4.5 -190.5z" />
    <glyph glyph-name="bar" unicode="|" horiz-adv-x="272" 
d="M74 1347q0 62 61 74q62 12 62 -49v-639.5v-639.5q0 -61 -60 -73q-61 -10 -61 48l-1 639.5z" />
  </font>
</defs>
</svg>
